<?xml version="1.0" encoding="UTF-8"?>
<svg id="Layer_1" xmlns="http://www.w3.org/2000/svg" version="1.1" viewBox="0 0 330 339">
  <!-- Generator: Adobe Illustrator 29.3.1, SVG Export Plug-In . SVG Version: 2.1.0 Build 151)  -->
  <defs>
    <style>
      .st0 {
        fill: #078dee;
      }
    </style>
  </defs>
  <g>
    <path class="st0" d="M81,220v-22.4h8.8c1.6,0,2.9.2,3.9.7,1.1.5,1.9,1.2,2.4,2s.8,1.9.8,3-.3,2.1-.8,2.8c-.5.8-1.2,1.4-2,1.8-.8.4-1.7.7-2.6.7l.5-.4c1,0,1.9.3,2.7.8.8.5,1.4,1.2,1.9,2s.7,1.7.7,2.7-.3,2.2-.9,3.2-1.4,1.7-2.5,2.2-2.4.8-4,.8h-9.1.2ZM84.8,207.1h4.4c1.2,0,2.1-.3,2.8-.8.6-.6,1-1.3,1-2.4s-.3-1.8-1-2.3c-.6-.6-1.6-.8-2.8-.8h-4.4v6.4h0ZM84.8,216.9h4.7c1.3,0,2.3-.3,3-.9.7-.6,1.1-1.4,1.1-2.5s-.4-1.9-1.1-2.5-1.7-.9-3-.9h-4.6v6.9h0Z"/>
    <path class="st0" d="M109.6,220.4c-1.6,0-3.1-.3-4.4-1-1.3-.6-2.4-1.6-3.1-2.9-.8-1.3-1.2-3-1.2-5v-13.9h3.8v13.9c0,1.2.2,2.2.6,3s1,1.4,1.7,1.8c.7.4,1.6.6,2.6.6s1.9-.2,2.6-.6c.7-.4,1.3-1,1.7-1.8s.6-1.8.6-3v-13.9h3.8v13.9c0,2-.4,3.7-1.2,5-.8,1.3-1.9,2.3-3.2,2.9-1.3.6-2.8,1-4.4,1h0Z"/>
    <path class="st0" d="M127.9,220v-19.3h-6.6v-3.1h17v3.1h-6.6v19.3s-3.8,0-3.8,0Z"/>
    <path class="st0" d="M141.5,220v-22.4h3.8v22.4h-3.8Z"/>
    <path class="st0" d="M149.8,220v-22.4h3.8v19.4h10v3h-13.9,0Z"/>
    <path class="st0" d="M167.4,220v-22.4h3.8v9.2l8.5-9.2h4.7l-8.3,8.9,8.5,13.5h-4.7l-6.5-10.6-2.2,2.4v8.2h-3.8Z"/>
    <path class="st0" d="M187.7,220v-22.4h3.8v22.4h-3.8Z"/>
    <path class="st0" d="M196.2,220v-22.4h.8l13.8,21.4v-21.4h.6v22.4h-.8l-13.9-21.5v21.5h-.6,0Z"/>
    <path class="st0" d="M214.9,220l8.2-22.4h.8l8,22.4h-.7l-7.7-21.7-7.9,21.7h-.7ZM218.1,211.8l.3-.6h10.1l.3.6h-10.7Z"/>
    <path class="st0" d="M236.1,220v-22.4h12.7v.6h-12.1v10.4h11.1v.6h-11.1v10.3h12.1v.6h-12.7Z"/>
    <path class="st0" d="M253.1,220v-22.4h5.4c2.7,0,4.9.4,6.6,1.3,1.7.9,3,2.2,3.8,3.8.8,1.7,1.2,3.7,1.2,6.2s-.4,4-1.1,5.7-1.9,3-3.6,4-3.9,1.4-6.6,1.4h-5.7,0ZM253.7,219.5h4.9c2.4,0,4.4-.4,6-1.3,1.6-.8,2.7-2,3.5-3.6s1.2-3.4,1.2-5.6-.4-4.1-1.1-5.7c-.7-1.6-1.9-2.9-3.4-3.7-1.6-.9-3.6-1.3-6.1-1.3h-4.9v21.2h-.1Z"/>
    <path class="st0" d="M274,220v-22.4h5.6c1.7,0,3.2.3,4.2.8,1.1.5,1.8,1.3,2.3,2.2s.7,2,.7,3.2-.2,2.4-.7,3.4c-.5.9-1.2,1.7-2.3,2.2-1.1.5-2.5.8-4.2.8h-5v9.9h-.6ZM274.6,209.6h5c2.1,0,3.7-.5,4.8-1.4,1.1-.9,1.7-2.4,1.7-4.4s-.6-3.3-1.7-4.2-2.7-1.4-4.8-1.4h-5v11.4h0ZM286.3,220l-5.3-10.3h.7l5.3,10.3h-.7Z"/>
    <path class="st0" d="M300.8,220.4c-2.1,0-4-.5-5.6-1.5s-2.8-2.3-3.7-4.1-1.3-3.8-1.3-6.1.4-4.3,1.3-6,2.1-3.1,3.7-4.1,3.4-1.5,5.6-1.5,4,.5,5.6,1.5,2.8,2.3,3.7,4.1c.9,1.7,1.3,3.8,1.3,6s-.4,4.3-1.3,6.1c-.9,1.7-2.1,3.1-3.7,4.1s-3.5,1.5-5.6,1.5ZM300.8,219.8c1.9,0,3.6-.4,5.1-1.3,1.5-.9,2.7-2.1,3.6-3.7.9-1.6,1.3-3.6,1.3-5.9s-.4-4.3-1.3-5.9c-.9-1.6-2.1-2.9-3.6-3.7-1.5-.9-3.2-1.3-5.1-1.3s-3.5.4-5,1.3c-1.5.9-2.7,2.1-3.6,3.7s-1.3,3.6-1.3,5.9.4,4.3,1.3,5.9c.9,1.6,2.1,2.9,3.6,3.7,1.5.9,3.2,1.3,5,1.3Z"/>
  </g>
  <g>
    <path class="st0" d="M82.1,236.8h0v-7.7h0c0-.1,2.1-.1,2.1-.1.9,0,1.6.2,2,.5.5.3.7.8.7,1.5s0,.8-.3,1c-.2.3-.5.5-1,.7h0c.6.1,1,.3,1.3.7.3.3.4.8.4,1.3s-.2,1.3-.7,1.6c-.5.4-1.3.5-2.3.5h-2.2ZM83,232.3h1.2c.6,0,1.1-.1,1.3-.3.3-.2.4-.5.4-1s0-.8-.4-.9c-.3-.2-.8-.3-1.4-.3h-1.1v2.5ZM83,235.9h1.2c.7,0,1.3-.1,1.6-.3s.5-.6.5-1-.2-.9-.5-1.1c-.3-.2-.8-.3-1.5-.3h-1.3v2.8h0Z"/>
    <path class="st0" d="M91,236.9c-.8,0-1.4-.2-1.8-.6-.4-.4-.6-1-.6-1.7v-1.5c0-.8.2-1.3.6-1.7s1-.6,1.8-.6.9,0,1.2.2c.3.1.6.3.8.6s.3.6.3.9v.3h-.8v-.2c0-.3,0-.5-.3-.7s-.5-.2-.9-.2-.9.1-1.1.4c-.2.2-.4.6-.4,1.2v1.3c0,.5,0,.9.4,1.1.2.3.6.4,1.1.4s.7,0,.9-.3c.2-.2.3-.4.3-.6s0-.2,0-.2h.8c0,.7-.2,1.1-.6,1.5s-1,.5-1.7.5h0Z"/>
    <path class="st0" d="M94.6,236.8h0c0-.1.8-1.4.8-1.4,0-.2.2-.3.3-.5,0-.2.2-.3.3-.5h0c-.4-.1-.7-.3-.9-.6-.2-.3-.3-.6-.3-1.1s0-.8.3-1c.2-.3.4-.5.7-.6.3-.1.7-.2,1.2-.2h2.2v5.7h0c0,.1-.8.1-.8.1h0v-2.2h-1.2l-1.3,2.1h-1.1v.2h-.2ZM97.1,233.7h1.1v-1.9h-1.3c-.4,0-.7,0-.9.3-.2.2-.2.4-.2.7s0,.6.3.7c.2.1.5.2,1,.2Z"/>
    <path class="st0" d="M105.9,236.6h-1l-1.8-2.7h-.9v2.6h0c0,.1-.8.1-.8.1h0v-8.1h0c0-.1.8-.1.8-.1h0v4.6h.8l1.7-2.2h1.1c0,.1-1.9,2.6-1.9,2.6l2.1,3.1h0Z"/>
    <path class="st0" d="M107.9,236.9c-.5,0-.8-.1-1.1-.4-.2-.3-.4-.7-.4-1.2s0-.8.2-1c.2-.3.4-.5.8-.6s.9-.2,1.5-.3h1.1v.7h-1.2c-.6.1-.9.2-1.1.4s-.3.4-.3.8,0,.5.2.6c0,.1.3.2.5.2s.5,0,.8-.3c.3-.2.7-.5,1.1-1v.9c-.3.3-.5.5-.8.7-.2.2-.5.3-.7.4s-.5.1-.7.1h0ZM110.2,236.8h0v-4c0-.4,0-.7-.2-.9s-.4-.3-.8-.3c-.7,0-1.1.2-1.1.7s0,.1,0,.1h-.8v-.2c0-.5,0-.8.5-1.1s.9-.4,1.6-.4,1.2.2,1.6.5c.3.3.5.8.5,1.5v4h0c0,.1-1,.1-1,.1h-.3Z"/>
    <path class="st0" d="M116.8,236.9c-.5,0-.9-.2-1.2-.5s-.4-.8-.4-1.5v-3.9h0c0-.1.8-.1.8-.1h0v3.9c0,.4,0,.7.2.9,0,.2.4.3.7.3s.6,0,.9-.3c.3-.2.7-.5,1.1-1v.9c-.3.3-.5.5-.8.7s-.5.3-.8.4-.5.1-.8.1h.3ZM119.2,236.8h0v-5.8h0c0-.1.8-.1.8-.1h0v5.8h0c0,.1-.8.1-.8.1Z"/>
    <path class="st0" d="M124,239.2c-.7,0-1.3-.1-1.6-.4s-.6-.6-.5-1.1v-.2h.8v.2c0,.2,0,.4.3.5s.5.2.9.2.8-.1,1.1-.3c.2-.2.3-.5.3-1v-1.2h0c-.3.3-.7.5-1,.6s-.6.2-1,.2c-.6,0-1.1-.2-1.4-.6-.3-.4-.5-.9-.5-1.7v-1.2c0-.8.2-1.4.6-1.8.4-.4,1-.6,1.8-.6h.8c.2,0,.5,0,.8.1.3,0,.5,0,.9.1v5.8c0,.5,0,.9-.3,1.2s-.5.6-.8.8-.8.3-1.3.3h0,.2ZM123.6,235.7c.3,0,.5,0,.8-.2.3-.1.6-.4,1-.7v-3h-1.3c-.5,0-.9.1-1.1.4s-.3.7-.3,1.2v1c0,.5,0,.8.2,1.1.2.2.4.3.8.3h0Z"/>
    <path class="st0" d="M130.4,236.9c-.8,0-1.4-.2-1.8-.5-.4-.4-.6-.9-.6-1.6v-1.7c0-.8.2-1.3.6-1.7s1-.6,1.8-.6,1.4.2,1.8.6.6,1,.6,1.7v.9s0,.1-.1.1h-3.6v.4c0,.5.1.9.3,1.2.2.2.6.4,1.1.4s.7,0,.9-.2.3-.3.3-.5,0-.1.1-.1h.8s.1,0,.1.1c0,.5-.2.9-.6,1.2-.4.3-1,.4-1.7.4h0ZM129.1,233.2h2.7c0-.6-.1-.9-.3-1.2s-.6-.4-1-.4-.8.1-1,.4-.3.6-.3,1.1h0Z"/>
    <path class="st0" d="M134.1,236.8h0c0-.1.8-1.4.8-1.4,0-.2.2-.3.3-.5,0-.2.2-.3.3-.5h0c-.4-.1-.7-.3-.9-.6s-.3-.6-.3-1.1,0-.8.3-1c.2-.3.4-.5.7-.6s.7-.2,1.2-.2h2.2s.1,0,.1.1v5.6s0,.1-.1.1h-.8s-.1,0-.1-.1v-2.1h-1.2l-1.3,2.1h-1.1v.2h0ZM136.5,233.7h1.1v-1.9h-1.3c-.4,0-.7,0-.9.3-.2.2-.2.4-.2.7s.1.6.3.7c.2.1.5.2,1,.2h0Z"/>
    <path class="st0" d="M144.7,239.2c-.5,0-.9,0-1.2-.2-.3-.1-.6-.3-.8-.6s-.2-.5-.2-.9v-.2h.8s.1,0,.1.2,0,.4.3.6c.2.1.5.2.9.2s.8-.1,1-.3.4-.5.4-.9v-.8c0-.4-.1-.6-.4-.8-.2-.2-.6-.3-1.1-.3h-.9v-.6h.9c.4,0,.8-.1,1-.3s.4-.5.4-.9v-.3c0-.4-.1-.7-.3-.8-.2-.2-.5-.3-.9-.3s-.6,0-.8.2c-.2.1-.3.3-.3.5s0,.1,0,.1h-.8s-.1,0-.2-.2c0-.3,0-.6.2-.8s.4-.4.8-.6c.3-.1.8-.2,1.2-.2.7,0,1.2.2,1.5.5s.5.8.5,1.4v.5c0,.3,0,.7-.3.9s-.4.5-.7.7h0c.4.1.7.3.9.6s.3.6.3,1v.6c0,.5,0,.9-.3,1.2-.2.3-.5.6-.8.8s-.8.3-1.3.3v-.3h.1Z"/>
    <path class="st0" d="M149.8,236.9c-.5,0-.8-.1-1.1-.4-.2-.3-.4-.7-.4-1.2s0-.8.2-1c.2-.3.4-.5.8-.6.4-.1.9-.2,1.5-.3h1.1v.7h-1.2c-.6.1-.9.2-1.1.4-.2.2-.3.4-.3.8s0,.5.2.6c.1.1.3.2.5.2s.5,0,.8-.3c.3-.2.7-.5,1.1-1v.9c-.3.3-.5.5-.8.7-.2.2-.5.3-.7.4s-.5.1-.7.1h0ZM152.1,236.8h0v-4c0-.4,0-.7-.2-.9s-.4-.3-.8-.3c-.7,0-1.1.2-1.1.7s0,.1-.1.1h-.8s-.1,0-.1-.2c0-.5.1-.8.5-1.1s.9-.4,1.6-.4,1.2.2,1.6.5c.3.3.5.8.5,1.5v4s0,.1-.1.1h-1,0Z"/>
    <path class="st0" d="M156.9,236.9c-.8,0-1.4-.2-1.8-.6s-.6-1-.6-1.7v-1.5c0-.8.2-1.3.6-1.7.4-.4,1-.6,1.8-.6s.9,0,1.2.2c.3.1.6.3.8.6s.3.6.3.9,0,.3-.1.3h-.8s-.1,0-.1-.2c0-.3-.1-.5-.3-.7s-.5-.2-.9-.2-.9.1-1.1.4c-.2.2-.4.6-.4,1.2v1.3c0,.5.1.9.4,1.1.2.3.6.4,1.1.4s.7,0,.9-.3c.2-.2.3-.4.3-.6s0-.2.1-.2h.8s.1,0,.1.1c0,.6-.2,1-.6,1.4s-1,.5-1.7.5h0Z"/>
    <path class="st0" d="M160.1,236.8s-.1,0,0-.1l2-5.5c0-.1.1-.2.2-.2h.8s.2,0,.2.2l2,5.5h0c0,.1-.8.1-.8.1h-.1l-1.1-3.2c0-.2-.2-.5-.2-.7s-.2-.5-.2-.7h0c0,.2-.1.5-.2.7,0,.2-.2.5-.3.7l-1.1,3.2h-1.2,0Z"/>
    <path class="st0" d="M167.1,239s-.1,0,0-.1l.9-2.1-2.2-5.6h0c0-.1.9-.1.9-.1h.1l1.1,2.9c0,.2.2.5.3.8s.2.5.3.8h0c0-.3.2-.5.3-.8,0-.3.2-.5.3-.8l1.1-2.9h.9c0,0,0,0,0,.1l-3,7.8h-1Z"/>
    <path class="st0" d="M171.7,236.8h0l1.8-3.1-1.6-2.5h0c0-.1.9-.1.9-.1h.2l1.4,2.2h.8v-4.5s0-.1.1-.1h.8s.1,0,.1.1v4.5h.8l1.4-2.2h1.1c0,.1-1.6,2.6-1.6,2.6l1.8,3.1h-1l-1.5-2.7h-.8v2.6s0,.1-.1.1h-.8s-.1,0-.1-.1v-2.6h-.8l-1.5,2.7h-1.4,0Z"/>
    <path class="st0" d="M181.8,236.9c-.5,0-.8-.1-1.1-.4-.2-.3-.4-.7-.4-1.2s0-.8.2-1c.2-.3.4-.5.8-.6.4-.1.8-.2,1.5-.3h1.1v.7h-1.2c-.6.1-.9.2-1.1.4s-.3.4-.3.8,0,.5.2.6c.1.1.3.2.5.2s.5,0,.8-.3c.3-.2.7-.5,1.1-1v.9c-.3.3-.5.5-.8.7-.2.2-.5.3-.7.4-.2,0-.5.1-.7.1h0ZM184,236.8h0v-4c0-.4,0-.7-.2-.9s-.4-.3-.8-.3c-.7,0-1.1.2-1.1.7s0,.1-.1.1h-.8s-.1,0-.1-.2c0-.5.1-.8.5-1.1s.9-.4,1.6-.4,1.2.2,1.6.5c.3.3.5.8.5,1.5v4s0,.1-.1.1h-1,0Z"/>
    <path class="st0" d="M188.9,236.9c-.8,0-1.4-.2-1.7-.6-.4-.4-.6-1-.6-1.7v-4.1c0-.5,0-.8.3-1.2.2-.3.4-.5.8-.7.3-.2.8-.2,1.3-.2s1.2.1,1.6.4.5.7.5,1.3,0,.8-.3,1.1-.4.5-.7.7h0c.5,0,.9.3,1.1.6s.3.8.3,1.3v.6c0,.8-.2,1.4-.6,1.8s-1,.6-1.8.6h-.2ZM187.6,232.2l1-.2c.4,0,.8-.2,1-.5.3-.2.4-.6.4-1s0-.7-.3-.8c-.2-.2-.5-.3-.9-.3s-.7,0-.9.3-.3.5-.3.9v1.7h0ZM188.9,236c.5,0,.8-.1,1.1-.4.2-.3.4-.6.4-1.2v-.6c0-.4,0-.7-.3-.9-.2-.2-.5-.3-.8-.3h-1.1c-.2,0-.4,0-.6.2v1.5c0,.5.1.9.3,1.2.2.2.5.4,1,.4h0Z"/>
    <path class="st0" d="M194.2,236.9c-.5,0-.8-.1-1.1-.4-.2-.3-.4-.7-.4-1.2s0-.8.2-1c.2-.3.4-.5.8-.6.4-.1.8-.2,1.5-.3h1.1v.7h-1.2c-.6.1-.9.2-1.1.4s-.3.4-.3.8,0,.5.2.6c.1.1.3.2.5.2s.5,0,.8-.3c.3-.2.7-.5,1.1-1v.9c-.3.3-.5.5-.8.7-.2.2-.5.3-.7.4-.2,0-.5.1-.7.1h0ZM196.5,236.8h0v-4c0-.4,0-.7-.2-.9s-.4-.3-.8-.3c-.7,0-1.1.2-1.1.7s0,.1-.1.1h-.8s-.1,0-.1-.2c0-.5.1-.8.5-1.1s.9-.4,1.6-.4,1.2.2,1.6.5c.3.3.5.8.5,1.5v4s0,.1-.1.1h-1,0Z"/>
    <path class="st0" d="M201.6,236.8s-.1,0-.1-.1v-5.6c0-.1,0-.2.1-.2h.7s.1,0,.1.1v5.6s0,.1-.1.1h-.8.1ZM205.5,236.8s-.1,0-.1-.1v-3.8c0-.4,0-.7-.2-.9s-.4-.3-.7-.3-.6,0-.9.3c-.3.2-.7.5-1.1.9v-.9c.3-.3.5-.5.8-.7s.5-.3.7-.4.5-.1.8-.1c.6,0,1,.2,1.3.5s.5.8.5,1.5v3.9s0,.1-.1.1h-1Z"/>
    <path class="st0" d="M208.3,239s-.1,0-.1-.1v-7.8s0-.1.1-.1h.7s.1,0,.1.1v7.8s0,.1-.1.1h-.8.1ZM210.8,236.9c-.3,0-.6,0-.9-.1-.3,0-.6-.2-.8-.3v-.9c.2.1.5.2.7.3.3,0,.5.1.8.1.5,0,.8-.1,1-.4.2-.3.3-.7.3-1.2v-1.3c0-.5,0-.8-.3-1.1s-.4-.3-.7-.3-.6,0-.8.2c-.3.2-.7.5-1.1.9v-1c.3-.2.5-.4.8-.6.2-.2.5-.3.7-.3s.5-.1.7-.1c.6,0,1,.2,1.3.6.3.4.5.9.5,1.7v1.5c0,.8-.2,1.4-.6,1.8s-.9.6-1.6.6h0Z"/>
    <path class="st0" d="M215.7,236.9c-.5,0-.8-.1-1.1-.4-.2-.3-.4-.7-.4-1.2s0-.8.2-1c.2-.3.4-.5.8-.6.4-.1.8-.2,1.5-.3h1.1v.7h-1.2c-.6.1-.9.2-1.1.4s-.3.4-.3.8,0,.5.2.6c.1.1.3.2.5.2s.5,0,.8-.3c.3-.2.7-.5,1.1-1v.9c-.3.3-.5.5-.8.7-.2.2-.5.3-.7.4-.2,0-.5.1-.7.1h0ZM218,236.8h0v-4c0-.4,0-.7-.2-.9s-.4-.3-.8-.3c-.7,0-1.1.2-1.1.7s0,.1-.1.1h-.8s-.1,0-.1-.2c0-.5.1-.8.5-1.1s.9-.4,1.6-.4,1.2.2,1.6.5c.3.3.5.8.5,1.5v4s0,.1-.1.1h-1,0Z"/>
    <path class="st0" d="M222.9,236.9c-.8,0-1.4-.2-1.7-.6-.4-.4-.6-1-.6-1.7v-4.1c0-.5,0-.8.3-1.2.2-.3.4-.5.8-.7.3-.2.8-.2,1.3-.2s1.2.1,1.6.4.5.7.5,1.3,0,.8-.3,1.1-.4.5-.7.7h0c.5,0,.9.3,1.1.6s.3.8.3,1.3v.6c0,.8-.2,1.4-.6,1.8s-1,.6-1.8.6h-.2ZM221.6,232.2l1-.2c.4,0,.8-.2,1-.5.3-.2.4-.6.4-1s0-.7-.3-.8c-.2-.2-.5-.3-.9-.3s-.7,0-.9.3-.3.5-.3.9v1.7h0ZM222.9,236c.5,0,.8-.1,1.1-.4.2-.3.4-.6.4-1.2v-.6c0-.4,0-.7-.3-.9-.2-.2-.5-.3-.8-.3h-1.1c-.2,0-.4,0-.6.2v1.5c0,.5.1.9.3,1.2.2.2.5.4,1,.4h0Z"/>
    <path class="st0" d="M228.6,236.9c-.5,0-.9-.2-1.2-.5s-.4-.8-.4-1.5v-3.9s0-.1.1-.1h.8s.1,0,.1.1v3.8c0,.4,0,.7.2.9.1.2.4.3.7.3s.6,0,.9-.3c.3-.2.7-.5,1.1-1v.9c-.3.3-.5.5-.8.7s-.5.3-.8.4-.5.1-.8.1h0ZM231,236.8s-.1,0-.1-.1v-5.7s0-.1.1-.1h.8s.1,0,.1.1v5.7s0,.1-.1.1h-.8Z"/>
    <path class="st0" d="M232.8,236.8s-.1,0,0-.1l2-5.5c0-.1.1-.2.2-.2h.8s.2,0,.2.2l2,5.5h0c0,.1-.8.1-.8.1h-.1l-1.1-3.2c0-.2-.2-.5-.2-.7s-.2-.5-.2-.7h0c0,.2-.1.5-.2.7,0,.2-.2.5-.3.7l-1.1,3.2h-1.2,0Z"/>
    <path class="st0" d="M239.1,236.8s-.1,0-.1-.1v-5.6s0-.1.1-.1h.8s.1,0,.1.1v5.6s0,.1-.1.1h-.8ZM239.8,234.2v-.9h3.1v.9h-3.1ZM242.8,236.8s-.1,0-.1-.1v-5.6s0-.1.1-.1h.8s.1,0,.1.1v5.6s0,.1-.1.1h-.8Z"/>
    <path class="st0" d="M246.6,236.9c-.5,0-.8-.1-1.1-.4-.2-.3-.4-.7-.4-1.2s0-.8.2-1c.2-.3.4-.5.8-.6.4-.1.8-.2,1.5-.3h1.1v.7h-1.2c-.6.1-.9.2-1.1.4s-.3.4-.3.8,0,.5.2.6c.1.1.3.2.5.2s.5,0,.8-.3c.3-.2.7-.5,1.1-1v.9c-.3.3-.5.5-.8.7-.2.2-.5.3-.7.4-.2,0-.5.1-.7.1h0ZM248.9,236.8h0v-4c0-.4,0-.7-.2-.9s-.4-.3-.8-.3c-.7,0-1.1.2-1.1.7s0,.1-.1.1h-.8s-.1,0-.1-.2c0-.5.1-.8.5-1.1s.9-.4,1.6-.4,1.2.2,1.6.5c.3.3.5.8.5,1.5v4s0,.1-.1.1h-1,0Z"/>
    <path class="st0" d="M251.6,236.8s-.1,0-.1-.1v-5.6s0-.1.1-.1h.8v.8c.4-.4.7-.6,1-.8s.7-.2,1-.2.7,0,1,.3c.3.2.4.5.5.8.4-.4.7-.7,1.1-.9.3-.2.7-.3,1.1-.3s.9.2,1.2.5c.3.3.4.8.4,1.5v3.9s0,.1-.1.1h-.8s-.1,0-.1-.1v-3.8c0-.4,0-.7-.2-.9-.1-.2-.4-.3-.7-.3s-.5,0-.8.2-.6.4-1,.8v4s0,.1-.1.1h-.8s-.1,0-.1-.1v-3.8c0-.4,0-.7-.2-.9-.1-.2-.4-.3-.7-.3s-.5,0-.8.2-.6.4-1,.8v4s0,.1-.1.1h-.8.2Z"/>
    <path class="st0" d="M262.7,236.9c-.5,0-.8-.1-1.1-.4-.2-.3-.4-.7-.4-1.2s0-.8.2-1c.2-.3.4-.5.8-.6s.8-.2,1.5-.3h1.1v.7h-1.2c-.6.1-.9.2-1.1.4s-.3.4-.3.8,0,.5.2.6c.1.1.3.2.5.2s.5,0,.8-.3c.3-.2.7-.5,1.1-1v.9c-.3.3-.5.5-.8.7-.2.2-.5.3-.7.4-.2,0-.5.1-.7.1h.1ZM265,236.8h0v-4c0-.4,0-.7-.2-.9s-.4-.3-.8-.3c-.7,0-1.1.2-1.1.7s0,.1-.1.1h-.8s-.1,0-.1-.2c0-.5.1-.8.5-1.1s.9-.4,1.6-.4,1.2.2,1.6.5c.3.3.5.8.5,1.5v4s0,.1-.1.1h-1Z"/>
    <path class="st0" d="M272.4,236.9c-.8,0-1.4-.2-1.8-.6-.4-.4-.6-1-.6-1.8v-2.8c0-.7.1-1.3.3-1.7.2-.4.5-.7.9-.9s.5-.2.7-.3.5-.1.7-.2c.2,0,.5-.1.7-.2.2,0,.4-.2.6-.3h.2l.2.7v.2c-.2.1-.4.2-.7.3-.3,0-.6.1-.9.2-.3,0-.6.2-.9.3s-.5.3-.6.6-.2.6-.2.9v3c0,.5.1.9.3,1.1s.6.4,1.1.4.9-.1,1.1-.4c.2-.3.3-.6.3-1.1v-1.2c0-.4,0-.8-.3-1-.2-.2-.4-.3-.8-.3s-.7.1-1,.3-.6.5-.9.9v-1c.2-.2.4-.4.6-.6s.4-.3.7-.4.5-.1.8-.1c.6,0,1,.2,1.4.5s.5.8.5,1.5v1.4c0,.8-.2,1.3-.6,1.7s-1,.6-1.8.6v.3h0Z"/>
    <path class="st0" d="M277.4,239s-.1,0,0-.1l.9-2.1-2.2-5.6h0c0-.1.9-.1.9-.1h.1l1.1,2.9c0,.2.2.5.3.8s.2.5.3.8h0c0-.3.2-.5.3-.8,0-.3.2-.5.3-.8l1.1-2.9h.9c0,0,0,0,0,.1l-3,7.8h-1,0Z"/>
    <path class="st0" d="M282.7,236.8s-.1,0-.1-.1v-5.6s0-.1.1-.1h.8v.8c.4-.4.7-.6,1-.8s.7-.2,1-.2.7,0,1,.3c.3.2.4.5.5.8.4-.4.7-.7,1.1-.9.3-.2.7-.3,1.1-.3s.9.2,1.2.5c.3.3.4.8.4,1.5v3.9s0,.1-.1.1h-.8s-.1,0-.1-.1v-3.8c0-.4,0-.7-.2-.9-.1-.2-.4-.3-.7-.3s-.5,0-.8.2-.6.4-1,.8v4s0,.1-.1.1h-.8s-.1,0-.1-.1v-3.8c0-.4,0-.7-.2-.9-.1-.2-.4-.3-.7-.3s-.5,0-.8.2-.6.4-1,.8v4s0,.1-.1.1h-.8.2Z"/>
    <path class="st0" d="M294.3,236.9c-.5,0-.9-.2-1.2-.5-.3-.3-.4-.8-.4-1.5v-3.9s0-.1.1-.1h.8s.1,0,.1.1v3.8c0,.4,0,.7.2.9.1.2.4.3.7.3s.6,0,.9-.3c.3-.2.7-.5,1.1-1v.9c-.3.3-.5.5-.8.7s-.5.3-.8.4-.5.1-.8.1h0ZM296.7,236.8s-.1,0-.1-.1v-5.7s0-.1.1-.1h.8s.1,0,.1.1v5.7s0,.1-.1.1h-.8Z"/>
    <path class="st0" d="M298.4,236.8s-.1,0,0-.1l2-5.5c0-.1.1-.2.2-.2h.8s.2,0,.2.2l2,5.5h0c0,.1-.8.1-.8.1h-.1l-1.1-3.2c0-.2-.2-.5-.2-.7s-.2-.5-.2-.7h0c0,.2-.1.5-.2.7,0,.2-.2.5-.3.7l-1.1,3.2h-1.2,0Z"/>
    <path class="st0" d="M309.5,236.6h-1l-1.8-2.7h-.9v2.6s0,.1-.1.1h-.8s-.1,0-.1-.1v-8s0-.1.1-.1h.8s.1,0,.1.1v4.5h.8l1.7-2.2h1.1c0,.1-1.9,2.6-1.9,2.6l2.1,3.1h-.1Z"/>
    <path class="st0" d="M311.5,236.9c-.5,0-.8-.1-1.1-.4-.2-.3-.4-.7-.4-1.2s0-.8.2-1c.2-.3.4-.5.8-.6s.8-.2,1.5-.3h1.1v.7h-1.2c-.6.1-.9.2-1.1.4s-.3.4-.3.8,0,.5.2.6c.1.1.3.2.5.2s.5,0,.8-.3c.3-.2.7-.5,1.1-1v.9c-.3.3-.5.5-.8.7-.2.2-.5.3-.7.4-.2,0-.5.1-.7.1h.1ZM313.8,236.8h0v-4c0-.4,0-.7-.2-.9s-.4-.3-.8-.3c-.7,0-1.1.2-1.1.7s0,.1-.1.1h-.8s-.1,0-.1-.2c0-.5.1-.8.5-1.1s.9-.4,1.6-.4,1.2.2,1.6.5c.3.3.5.8.5,1.5v4s0,.1-.1.1h-1Z"/>
    <path class="st0" d="M316.8,236.9c-.2,0-.4,0-.5-.2-.1-.1-.2-.3-.2-.5h0c0-.3,0-.5.2-.6.1-.1.3-.2.5-.2s.4,0,.5.2c.1.1.2.3.2.5h0c0,.3,0,.5-.2.6-.1.1-.3.2-.5.2Z"/>
  </g>
  <g>
    <path d="M46.8,438.9v-8.4h1.2v7.5h3.8v.9h-5Z"/>
    <path d="M55.7,439.1c-.6,0-1.1-.1-1.5-.4-.5-.3-.8-.6-1.1-1.1s-.4-1-.4-1.6,0-1.2.4-1.7c.3-.5.6-.8,1.1-1.1s1-.4,1.5-.4,1.1.1,1.5.4.8.6,1.1,1.1.4,1,.4,1.7,0,1.2-.4,1.7c-.3.5-.6.8-1.1,1.1s-1,.4-1.5.4h0ZM55.7,438.1c.3,0,.6,0,.9-.2.3-.2.5-.4.7-.7.2-.3.3-.7.3-1.2s0-.9-.2-1.2c-.2-.3-.4-.6-.6-.7-.3-.2-.6-.2-.9-.2s-.6,0-.9.2-.5.4-.7.7c-.2.3-.2.7-.2,1.2s0,.9.2,1.2c.2.3.4.6.6.7.3.2.6.2.9.2h0Z"/>
    <path d="M60.1,438.9v-6h1.1v1.1c.2-.3.4-.5.6-.7.2-.2.5-.3.8-.4s.6-.2,1-.2v1.3h-1.1c-.2,0-.4.2-.6.3-.2.1-.3.3-.4.6v3.9h-1.4Z"/>
    <path d="M67.2,439.1c-.6,0-1.1-.1-1.5-.4s-.8-.6-1-1.1c-.3-.5-.4-1-.4-1.7s0-1.2.4-1.7.6-.8,1-1.1c.5-.3,1-.4,1.6-.4s1.1.1,1.5.4.8.6,1,1,.3.9.3,1.4v.6h-4.9v-.8h3.8c0-.5-.2-.9-.5-1.2s-.7-.4-1.2-.4-.6,0-.9.2c-.3.1-.5.4-.6.6-.2.3-.2.6-.2,1.1v.3c0,.4,0,.8.2,1.1.2.3.4.5.6.7.3.2.6.2.9.2s.7,0,1-.3c.3-.2.4-.4.5-.7h1.2c0,.4-.3.7-.5,1s-.6.5-.9.7-.8.3-1.3.3v.2h0Z"/>
    <path d="M71.4,438.9v-6h1.1v.8c.3-.3.5-.5.9-.7.3-.2.7-.3,1.1-.3s.6,0,.8.1.5.2.7.4.3.4.5.6c.2-.4.5-.6.9-.8.4-.2.8-.3,1.2-.3s.9,0,1.2.3c.3.2.6.5.8.9.2.4.3.9.3,1.5v3.6h-1.2v-3.5c0-.6,0-1-.3-1.3s-.6-.4-1-.4-.6,0-.8.2c-.2.2-.4.4-.5.7,0,.3-.2.6-.2,1.1v3.2h-1.2v-3.5c0-.6,0-1-.3-1.3-.2-.3-.6-.4-1-.4s-.5,0-.8.2c-.2.2-.4.4-.5.7,0,.3-.2.6-.2,1.1v3.2h-1.5Z"/>
    <path d="M86.1,431.8c-.2,0-.4,0-.6-.2s-.2-.3-.2-.6,0-.4.2-.5c0-.1.3-.2.6-.2s.4,0,.6.2c.2.1.2.3.2.5s0,.4-.2.6c-.2.1-.3.2-.6.2ZM85.5,438.9v-6h1.2v6h-1.2Z"/>
    <path d="M88.4,441.6v-8.7h1.1v.9c.2-.2.4-.4.6-.5.2-.2.4-.3.7-.4.3-.1.6-.2.9-.2.6,0,1.1.1,1.5.4s.8.7,1,1.1c.2.5.4,1,.4,1.6s0,1.1-.4,1.6c-.2.5-.6.8-1,1.1-.4.3-.9.4-1.5.4s-.9,0-1.2-.3c-.4-.2-.6-.5-.8-.8v3.6h-1.2v.2h0ZM91.5,438c.4,0,.7,0,1-.3.3-.2.5-.4.7-.7.2-.3.2-.7.2-1.1s0-.8-.2-1.1c-.2-.3-.4-.6-.7-.7-.3-.2-.6-.3-1-.3s-.7,0-1,.3-.5.4-.7.7c-.2.3-.2.7-.2,1.1s0,.8.2,1.1c.2.3.4.6.7.7s.6.3,1,.3Z"/>
    <path d="M98.3,439.1c-.5,0-1,0-1.4-.3-.4-.2-.7-.4-.9-.7-.2-.3-.4-.7-.4-1.1h1.2c0,.2,0,.4.2.5,0,.2.3.3.5.4.2,0,.4.1.7.1s.5,0,.6-.1c.2,0,.3-.2.4-.3s0-.3,0-.4c0-.2,0-.4-.2-.5,0-.1-.3-.2-.5-.3-.2,0-.5-.1-.8-.2-.3,0-.5-.1-.8-.2-.3,0-.5-.2-.7-.3s-.4-.3-.5-.5-.2-.4-.2-.7,0-.7.3-.9c.2-.3.4-.5.8-.6.3-.2.7-.2,1.2-.2s1.2.2,1.6.5.7.8.7,1.4h-1.2c0-.3-.2-.5-.4-.6-.2-.2-.5-.2-.8-.2s-.6,0-.8.2-.3.3-.3.5,0,.3.2.4.3.2.5.3c.2,0,.4.1.7.2.4,0,.8.2,1.1.3.3.1.6.3.8.5.2.2.3.6.3,1s0,.7-.3,1c-.2.3-.5.5-.8.7-.4.2-.8.2-1.3.2h.5Z"/>
    <path d="M104.3,439.1c-.5,0-.9,0-1.2-.3-.4-.2-.6-.5-.8-.9s-.3-.9-.3-1.5v-3.6h1.2v3.5c0,.6,0,1,.4,1.3s.6.4,1.1.4.6,0,.8-.2c.2-.2.4-.4.6-.7,0-.3.2-.6.2-1v-3.2h1.2v6h-1.1v-1c-.3.4-.5.7-.9.9s-.8.3-1.2.3h0Z"/>
    <path d="M109.2,438.9v-6h1.1v.8c.3-.3.5-.5.9-.7.3-.2.7-.3,1.1-.3s.6,0,.8.1.5.2.7.4.3.4.5.6c.2-.4.5-.6.9-.8.4-.2.8-.3,1.2-.3s.9,0,1.2.3c.3.2.6.5.8.9.2.4.3.9.3,1.5v3.6h-1.2v-3.5c0-.6,0-1-.3-1.3s-.6-.4-1-.4-.6,0-.8.2c-.2.2-.4.4-.5.7,0,.3-.2.6-.2,1.1v3.2h-1.2v-3.5c0-.6,0-1-.3-1.3-.2-.3-.6-.4-1-.4s-.5,0-.8.2c-.2.2-.4.4-.5.7,0,.3-.2.6-.2,1.1v3.2h-1.5Z"/>
  </g>
  <g>
    <path class="st0" d="M62.4,236.9c-.6,1-2.5,2.1-3.7,2.1H22.5c-2.4-.1-4.1-2.3-4.2-4.6.3-7.7-.4-15.8,0-23.5.2-3.2,1-6.4,1.4-9.6.8-7.3.4-14.8,1.1-22.1.6-6.6-.8-14.6,0-21,.2-1.9,2.3-5.2,3.5-6.8,1.7-2.4,3.9-4.7,6.1-6.7,7.1-.2,14.1.1,21.1.2,3.5,3.3,8.8,9.4,9.3,14.4s-.2,15,0,22.1c0,6.9.4,14.1,1.2,20.9s1,4.7,1.1,7.1c.5,8.2-.4,17,0,25.3,0,.6-.3,1.6-.5,2.1h-.2Z"/>
    <path class="st0" d="M26.5,142.4v-14.9c.9-.8,0-.7,0-1.5s1.4-1.5,2.2-1.9c5.5-2.2,18.5-2.1,24,0,1.6.6,2.8,1.5,1.3,3.1h.7v15.3h-28.2Z"/>
  </g>
</svg>