<?xml version="1.0" encoding="UTF-8"?>
<svg id="Layer_1" data-name="Layer 1" xmlns="http://www.w3.org/2000/svg" viewBox="0 0 124.68 324.11">
  <defs>
    <style>
      .cls-1 {
        fill: #078dee;
      }
    </style>
  </defs>
  <path class="cls-1" d="M122.15,318.38c-1.64,2.78-6.87,5.73-10.15,5.73H11.99c-6.55-.33-11.29-6.38-11.62-12.77.82-21.28-1.15-43.54,0-64.82.49-8.84,2.78-17.68,3.93-26.52,2.13-20.13,1.15-40.76,3.11-60.89,1.64-18.17-2.13-40.27,0-57.95.49-5.24,6.38-14.4,9.66-18.82,4.75-6.55,10.8-12.93,16.86-18.5,19.64-.49,38.96.33,58.27.49,9.66,9.17,24.23,25.86,25.7,39.78,1.47,13.91-.49,41.41,0,60.89.33,18.99,1.15,38.96,3.27,57.62,2.13,18.82,2.78,12.93,3.11,19.64,1.31,22.59-1.15,46.82,0,69.73,0,1.64-.82,4.42-1.31,5.73h0l-.49.33-.33.33h0Z"/>
  <path class="cls-1" d="M23.12,54.84V13.75c2.46-2.13,0-1.96,0-4.09s3.93-4.09,6.06-5.24c15.22-6.06,51.07-5.73,66.13,0,4.42,1.64,7.69,4.09,3.6,8.51h1.96v42.23H23.12v-.33Z"/>
</svg>