<?xml version="1.0" encoding="UTF-8"?>
<svg id="Layer_1" xmlns="http://www.w3.org/2000/svg" version="1.1" viewBox="0 0 330 339">
  <!-- Generator: Adobe Illustrator 29.3.1, SVG Export Plug-In . SVG Version: 2.1.0 Build 151)  -->
  <defs>
    <style>
      .st0 {
        fill: #078dee;
      }
    </style>
  </defs>
  <g>
    <path class="st0" d="M48.4,262.7v-22.4h8.8c1.6,0,2.9.2,3.9.7,1.1.5,1.9,1.2,2.4,2,.5.8.8,1.9.8,3s-.3,2.1-.8,2.8c-.5.8-1.2,1.4-2,1.8-.8.4-1.7.7-2.6.7l.5-.4c1,0,1.9.3,2.7.8s1.4,1.2,1.9,2,.7,1.7.7,2.7-.3,2.2-.9,3.2-1.4,1.7-2.5,2.2-2.4.8-4,.8h-9.1.2ZM52.3,249.8h4.4c1.2,0,2.1-.3,2.8-.8.6-.6,1-1.3,1-2.4s-.3-1.8-1-2.3c-.6-.6-1.6-.8-2.8-.8h-4.4v6.4h0ZM52.3,259.6h4.7c1.3,0,2.3-.3,3-.9s1.1-1.4,1.1-2.5-.4-1.9-1.1-2.5c-.7-.6-1.7-.9-3-.9h-4.6v6.9h-.1Z"/>
    <path class="st0" d="M77,263.1c-1.6,0-3.1-.3-4.4-1-1.3-.6-2.4-1.6-3.1-2.9-.8-1.3-1.2-3-1.2-5v-13.9h3.8v13.9c0,1.2.2,2.2.6,3s1,1.4,1.7,1.8,1.6.6,2.6.6,1.9-.2,2.6-.6,1.3-1,1.7-1.8.6-1.8.6-3v-13.9h3.8v13.9c0,2-.4,3.7-1.2,5-.8,1.3-1.9,2.3-3.2,2.9-1.3.6-2.8,1-4.4,1h0Z"/>
    <path class="st0" d="M95.4,262.7v-19.3h-6.6v-3.1h17v3.1h-6.6v19.3h-3.8Z"/>
    <path class="st0" d="M108.9,262.7v-22.4h3.8v22.4h-3.8Z"/>
    <path class="st0" d="M117.3,262.7v-22.4h3.8v19.4h10v3h-13.9,0Z"/>
    <path class="st0" d="M134.8,262.7v-22.4h3.8v9.2l8.5-9.2h4.7l-8.3,8.9,8.5,13.5h-4.7l-6.5-10.6-2.2,2.4v8.2h-3.8Z"/>
    <path class="st0" d="M155.1,262.7v-22.4h3.8v22.4h-3.8Z"/>
    <path class="st0" d="M163.6,262.7v-22.4h.8l13.8,21.4v-21.4h.6v22.4h-.8l-13.9-21.5v21.5h-.6,0Z"/>
    <path class="st0" d="M182.4,262.7l8.2-22.4h.8l8,22.4h-.7l-7.7-21.7-7.9,21.7h-.7ZM185.6,254.5l.3-.6h10.1l.3.6h-10.7Z"/>
    <path class="st0" d="M203.5,262.7v-22.4h12.7v.6h-12.1v10.4h11.1v.6h-11.1v10.3h12.1v.6h-12.7Z"/>
    <path class="st0" d="M220.5,262.7v-22.4h5.4c2.7,0,4.9.4,6.6,1.3,1.7.9,3,2.2,3.8,3.8.8,1.7,1.2,3.7,1.2,6.2s-.4,4-1.1,5.7c-.7,1.7-1.9,3-3.6,4s-3.9,1.4-6.6,1.4h-5.7ZM221.2,262.1h4.9c2.4,0,4.4-.4,6-1.3,1.6-.8,2.7-2,3.5-3.6s1.2-3.4,1.2-5.6-.4-4.1-1.1-5.7c-.7-1.6-1.9-2.9-3.4-3.7-1.6-.9-3.6-1.3-6.1-1.3h-4.9v21.2h0Z"/>
    <path class="st0" d="M241.4,262.7v-22.4h5.6c1.7,0,3.2.3,4.2.8,1.1.5,1.8,1.3,2.3,2.2s.7,2,.7,3.2-.2,2.4-.7,3.4c-.5.9-1.2,1.7-2.3,2.2s-2.5.8-4.2.8h-5v9.9h-.6ZM242.1,252.2h5c2.1,0,3.7-.5,4.8-1.4s1.7-2.4,1.7-4.4-.6-3.3-1.7-4.2c-1.1-.9-2.7-1.4-4.8-1.4h-5v11.4h0ZM253.8,262.7l-5.3-10.3h.7l5.3,10.3h-.7Z"/>
    <path class="st0" d="M268.3,263.1c-2.1,0-4-.5-5.6-1.5s-2.8-2.3-3.7-4.1-1.3-3.8-1.3-6.1.4-4.3,1.3-6,2.1-3.1,3.7-4.1,3.4-1.5,5.6-1.5,4,.5,5.6,1.5,2.8,2.3,3.7,4.1c.9,1.7,1.3,3.8,1.3,6s-.4,4.3-1.3,6.1c-.9,1.7-2.1,3.1-3.7,4.1s-3.5,1.5-5.6,1.5ZM268.3,262.5c1.9,0,3.6-.4,5.1-1.3s2.7-2.1,3.6-3.7,1.3-3.6,1.3-5.9-.4-4.3-1.3-5.9c-.9-1.6-2.1-2.9-3.6-3.7-1.5-.9-3.2-1.3-5.1-1.3s-3.5.4-5,1.3c-1.5.9-2.7,2.1-3.6,3.7s-1.3,3.6-1.3,5.9.4,4.3,1.3,5.9c.9,1.6,2.1,2.9,3.6,3.7,1.5.9,3.2,1.3,5,1.3Z"/>
  </g>
  <g>
    <path class="st0" d="M46.7,279.1s0,0,0-.1v-7.6s0-.1,0-.1h2.1c.9,0,1.6.2,2,.5.5.3.7.8.7,1.5s0,.8-.3,1c-.2.3-.5.5-1,.7h0c.6.1,1,.3,1.3.7.3.3.4.8.4,1.3s-.2,1.3-.7,1.6c-.5.4-1.3.5-2.3.5h-2.2ZM47.6,274.6h1.2c.6,0,1.1-.1,1.3-.3.3-.2.4-.5.4-1s0-.8-.4-.9c-.3-.2-.8-.3-1.4-.3h-1.1v2.5h0ZM47.6,278.2h1.2c.7,0,1.3-.1,1.6-.3s.5-.6.5-1-.2-.9-.5-1.1-.8-.3-1.5-.3h-1.3v2.8h0Z"/>
    <path class="st0" d="M55.7,279.2c-.8,0-1.4-.2-1.8-.6-.4-.4-.6-1-.6-1.7v-1.5c0-.8.2-1.3.6-1.7.4-.4,1-.6,1.8-.6s.9,0,1.2.2c.3.1.6.3.8.6s.3.6.3.9,0,.3,0,.3h-.8s0,0,0-.2c0-.3,0-.5-.3-.7s-.5-.2-.9-.2-.9.1-1.1.4c-.2.2-.4.6-.4,1.2v1.3c0,.5,0,.9.4,1.1.2.3.6.4,1.1.4s.7,0,.9-.3c.2-.2.3-.4.3-.6s0-.2,0-.2h.8s0,0,0,.1c0,.6-.2,1-.6,1.4s-1,.5-1.7.5h0Z"/>
    <path class="st0" d="M59.2,279.1h0c0-.1.8-1.4.8-1.4,0-.2.2-.3.3-.5,0-.2.2-.3.3-.5h0c-.4-.1-.7-.3-.9-.6-.2-.3-.3-.6-.3-1.1s0-.8.3-1c.2-.3.4-.5.7-.6s.7-.2,1.2-.2h2.2s0,0,0,.1v5.6s0,.1,0,.1h-.8s0,0,0-.1v-2.1h-1.2l-1.3,2.1h-1.1v.2ZM61.7,276h1.1v-1.9h-1.3c-.4,0-.7,0-.9.3-.2.2-.2.4-.2.7s0,.6.3.7.5.2,1,.2h0Z"/>
    <path class="st0" d="M70.5,278.9h-1l-1.8-2.7h-.9v2.6s0,.1,0,.1h-.8s0,0,0-.1v-8s0-.1,0-.1h.8s0,0,0,.1v4.5h.8l1.7-2.2h1.1c0,.1-1.9,2.6-1.9,2.6l2.1,3.1h0Z"/>
    <path class="st0" d="M72.5,279.2c-.5,0-.8-.1-1.1-.4-.2-.3-.4-.7-.4-1.2s0-.8.2-1c.2-.3.4-.5.8-.6s.9-.2,1.5-.3h1.1v.7h-1.2c-.6.1-.9.2-1.1.4-.2.2-.3.4-.3.8s0,.5.2.6c0,.1.3.2.5.2s.5,0,.8-.3c.3-.2.7-.5,1.1-1v.9c-.3.3-.5.5-.8.7-.2.2-.5.3-.7.4s-.5.1-.7.1h0ZM74.8,279.1h0v-4c0-.4,0-.7-.2-.9-.2-.2-.4-.3-.8-.3-.7,0-1.1.2-1.1.7s0,.1,0,.1h-.8s0,0,0-.2c0-.5,0-.8.5-1.1.4-.3.9-.4,1.6-.4s1.2.2,1.6.5c.3.3.5.8.5,1.5v4s0,.1,0,.1h-1Z"/>
    <path class="st0" d="M81.4,279.2c-.5,0-.9-.2-1.2-.5s-.4-.8-.4-1.5v-3.9s0-.1,0-.1h.8s0,0,0,.1v3.8c0,.4,0,.7.2.9,0,.2.4.3.7.3s.6,0,.9-.3c.3-.2.7-.5,1.1-1v.9c-.3.3-.5.5-.8.7s-.5.3-.8.4-.5.1-.8.1h.1ZM83.8,279.1s0,0,0-.1v-5.7s0-.1,0-.1h.8s0,0,0,.1v5.7s0,.1,0,.1h-.8Z"/>
    <path class="st0" d="M88.6,281.4c-.7,0-1.3-.1-1.6-.4s-.6-.6-.5-1.1c0-.1,0-.2,0-.2h.8s0,0,0,.2,0,.4.3.5.5.2.9.2.8-.1,1.1-.3c.2-.2.3-.5.3-1v-1.2h0c-.3.3-.7.5-1,.6s-.6.2-1,.2c-.6,0-1.1-.2-1.4-.6s-.5-.9-.5-1.7v-1.2c0-.8.2-1.4.6-1.8s1-.6,1.8-.6h.8c.2,0,.5,0,.8.1.3,0,.5,0,.9.1v5.8c0,.5,0,.9-.3,1.2s-.5.6-.8.8-.8.3-1.3.3h-.1ZM88.2,278c.3,0,.5,0,.8-.2.3-.1.6-.4,1-.7v-3h-1.3c-.5,0-.9.1-1.1.4s-.3.7-.3,1.2v1c0,.5,0,.8.2,1.1.2.2.4.3.8.3h-.1Z"/>
    <path class="st0" d="M95.1,279.2c-.8,0-1.4-.2-1.8-.5-.4-.4-.6-.9-.6-1.6v-1.7c0-.8.2-1.3.6-1.7.4-.4,1-.6,1.8-.6s1.4.2,1.8.6.6,1,.6,1.7v.9s0,.1,0,.1h-3.6v.4c0,.5,0,.9.3,1.2.2.2.6.4,1.1.4s.7,0,.9-.2.3-.3.3-.5,0-.1,0-.1h.8s0,0,0,.1c0,.5-.2.9-.6,1.2-.4.3-1,.4-1.7.4h0ZM93.7,275.5h2.7c0-.6,0-.9-.3-1.2s-.6-.4-1-.4-.8.1-1,.4-.3.6-.3,1.1h0Z"/>
    <path class="st0" d="M98.7,279.1h0c0-.1.8-1.4.8-1.4,0-.2.2-.3.3-.5,0-.2.2-.3.3-.5h0c-.4-.1-.7-.3-.9-.6-.2-.3-.3-.6-.3-1.1s0-.8.3-1c.2-.3.4-.5.7-.6.3-.1.7-.2,1.2-.2h2.2s0,0,0,.1v5.6s0,.1,0,.1h-.8s0,0,0-.1v-2.1h-1.2l-1.3,2.1h-1.1v.2ZM101.2,276h1.1v-1.9h-1.3c-.4,0-.7,0-.9.3-.2.2-.2.4-.2.7s0,.6.3.7c.2.1.5.2,1,.2h0Z"/>
    <path class="st0" d="M109.3,281.4c-.5,0-.9,0-1.2-.2-.3-.1-.6-.3-.8-.6-.2-.3-.2-.5-.2-.9v-.2h.8s0,0,0,.2,0,.4.3.6c.2.1.5.2.9.2s.8-.1,1-.3c.2-.2.4-.5.4-.9v-.8c0-.4,0-.6-.4-.8-.2-.2-.6-.3-1.1-.3h-.9v-.6h.9c.4,0,.8-.1,1-.3.2-.2.4-.5.4-.9v-.3c0-.4,0-.7-.3-.8-.2-.2-.5-.3-.9-.3s-.6,0-.8.2c-.2.1-.3.3-.3.5s0,.1,0,.1h-.8s0,0-.2-.2c0-.3,0-.6.2-.8.2-.2.4-.4.8-.6.3-.1.8-.2,1.2-.2.7,0,1.2.2,1.5.5s.5.8.5,1.4v.5c0,.3,0,.7-.3.9s-.4.5-.7.7h0c.4.1.7.3.9.6.2.3.3.6.3,1v.6c0,.5,0,.9-.3,1.2-.2.3-.5.6-.8.8s-.8.3-1.3.3v-.3Z"/>
    <path class="st0" d="M114.4,279.2c-.5,0-.8-.1-1.1-.4-.2-.3-.4-.7-.4-1.2s0-.8.2-1c.2-.3.4-.5.8-.6s.9-.2,1.5-.3h1.1v.7h-1.2c-.6.1-.9.2-1.1.4-.2.2-.3.4-.3.8s0,.5.2.6c0,.1.3.2.5.2s.5,0,.8-.3c.3-.2.7-.5,1.1-1v.9c-.3.3-.5.5-.8.7-.2.2-.5.3-.7.4s-.5.1-.7.1h0ZM116.7,279.1h0v-4c0-.4,0-.7-.2-.9-.2-.2-.4-.3-.8-.3-.7,0-1.1.2-1.1.7s0,.1,0,.1h-.8s0,0,0-.2c0-.5,0-.8.5-1.1.4-.3.9-.4,1.6-.4s1.2.2,1.6.5c.3.3.5.8.5,1.5v4s0,.1,0,.1h-1Z"/>
    <path class="st0" d="M121.6,279.2c-.8,0-1.4-.2-1.8-.6s-.6-1-.6-1.7v-1.5c0-.8.2-1.3.6-1.7.4-.4,1-.6,1.8-.6s.9,0,1.2.2c.3.1.6.3.8.6.2.3.3.6.3.9s0,.3,0,.3h-.8s0,0,0-.2c0-.3,0-.5-.3-.7-.2-.2-.5-.2-.9-.2s-.9.1-1.1.4c-.2.2-.4.6-.4,1.2v1.3c0,.5,0,.9.4,1.1.2.3.6.4,1.1.4s.7,0,.9-.3c.2-.2.3-.4.3-.6s0-.2,0-.2h.8s0,0,0,.1c0,.6-.2,1-.6,1.4s-1,.5-1.7.5h0Z"/>
    <path class="st0" d="M124.7,279.1s0,0,0-.1l2-5.5c0-.1,0-.2.2-.2h.8s.2,0,.2.2l2,5.5h0c0,.1-.8.1-.8.1h-.1l-1.1-3.2c0-.2-.2-.5-.2-.7s-.2-.5-.2-.7h0c0,.2,0,.5-.2.7,0,.2-.2.5-.3.7l-1.1,3.2h-1.2Z"/>
    <path class="st0" d="M131.8,281.3s-.1,0,0-.1l.9-2.1-2.2-5.6h0c0-.1.9-.1.9-.1h.1l1.1,2.9c0,.2.2.5.3.8s.2.5.3.8h0c0-.3.2-.5.3-.8,0-.3.2-.5.3-.8l1.1-2.9h.9q.1,0,0,.1l-3,7.8h-1Z"/>
    <path class="st0" d="M136.3,279.1h0l1.8-3.1-1.6-2.5h0c0-.1.9-.1.9-.1h.2l1.4,2.2h.8v-4.5s0-.1.1-.1h.8s.1,0,.1.1v4.5h.8l1.4-2.2h1.1c0,.1-1.6,2.6-1.6,2.6l1.8,3.1h-1l-1.5-2.7h-.8v2.6s0,.1-.1.1h-.8s-.1,0-.1-.1v-2.6h-.8l-1.5,2.7h-1.4Z"/>
    <path class="st0" d="M146.4,279.2c-.5,0-.8-.1-1.1-.4-.2-.3-.4-.7-.4-1.2s0-.8.2-1c.2-.3.4-.5.8-.6.4-.1.8-.2,1.5-.3h1.1v.7h-1.2c-.6.1-.9.2-1.1.4s-.3.4-.3.8,0,.5.2.6c.1.1.3.2.5.2s.5,0,.8-.3c.3-.2.7-.5,1.1-1v.9c-.3.3-.5.5-.8.7-.2.2-.5.3-.7.4-.2,0-.5.1-.7.1h0ZM148.7,279.1h0v-4c0-.4,0-.7-.2-.9s-.4-.3-.8-.3c-.7,0-1.1.2-1.1.7s0,.1-.1.1h-.8s-.1,0-.1-.2c0-.5.1-.8.5-1.1.4-.3.9-.4,1.6-.4s1.2.2,1.6.5c.3.3.5.8.5,1.5v4s0,.1-.1.1h-1Z"/>
    <path class="st0" d="M153.5,279.2c-.8,0-1.4-.2-1.7-.6-.4-.4-.6-1-.6-1.7v-4.1c0-.5,0-.8.3-1.2.2-.3.4-.5.8-.7.3-.2.8-.2,1.3-.2s1.2.1,1.6.4.5.7.5,1.3,0,.8-.3,1.1-.4.5-.7.7h0c.5,0,.9.3,1.1.6s.3.8.3,1.3v.6c0,.8-.2,1.4-.6,1.8-.4.4-1,.6-1.8.6h-.2ZM152.2,274.5l1-.2c.4,0,.8-.2,1-.5.3-.2.4-.6.4-1s0-.7-.3-.8c-.2-.2-.5-.3-.9-.3s-.7,0-.9.3-.3.5-.3.9v1.7h0ZM153.6,278.3c.5,0,.8-.1,1.1-.4.2-.3.4-.6.4-1.2v-.6c0-.4,0-.7-.3-.9-.2-.2-.5-.3-.8-.3h-1.1c-.2,0-.4,0-.6.2v1.5c0,.5.1.9.3,1.2.2.2.5.4,1,.4h0Z"/>
    <path class="st0" d="M158.8,279.2c-.5,0-.8-.1-1.1-.4-.2-.3-.4-.7-.4-1.2s0-.8.2-1c.2-.3.4-.5.8-.6.4-.1.8-.2,1.5-.3h1.1v.7h-1.2c-.6.1-.9.2-1.1.4s-.3.4-.3.8,0,.5.2.6c.1.1.3.2.5.2s.5,0,.8-.3c.3-.2.7-.5,1.1-1v.9c-.3.3-.5.5-.8.7-.2.2-.5.3-.7.4-.2,0-.5.1-.7.1h0ZM161.1,279.1h0v-4c0-.4,0-.7-.2-.9s-.4-.3-.8-.3c-.7,0-1.1.2-1.1.7s0,.1-.1.1h-.8s-.1,0-.1-.2c0-.5.1-.8.5-1.1.4-.3.9-.4,1.6-.4s1.2.2,1.6.5c.3.3.5.8.5,1.5v4s0,.1-.1.1h-1Z"/>
    <path class="st0" d="M166.3,279.1s-.1,0-.1-.1v-5.6c0-.1,0-.2.1-.2h.7s.1,0,.1.1v5.6s0,.1-.1.1h-.8.1ZM170.1,279.1s-.1,0-.1-.1v-3.8c0-.4,0-.7-.2-.9-.2-.2-.4-.3-.7-.3s-.6,0-.9.3c-.3.2-.7.5-1.1.9v-.9c.3-.3.5-.5.8-.7s.5-.3.7-.4.5-.1.8-.1c.6,0,1,.2,1.3.5s.5.8.5,1.5v3.9s0,.1-.1.1h-1Z"/>
    <path class="st0" d="M172.9,281.3s-.1,0-.1-.1v-7.8s0-.1.1-.1h.7s.1,0,.1.1v7.8s0,.1-.1.1h-.8.1ZM175.4,279.2c-.3,0-.6,0-.9-.1-.3,0-.6-.2-.8-.3v-.9c.2.1.5.2.7.3.3,0,.5.1.8.1.5,0,.8-.1,1-.4s.3-.7.3-1.2v-1.3c0-.5,0-.8-.3-1.1-.2-.2-.4-.3-.7-.3s-.6,0-.8.2c-.3.2-.7.5-1.1.9v-1c.3-.2.5-.4.8-.6.2-.2.5-.3.7-.3s.5-.1.7-.1c.6,0,1,.2,1.3.6s.5.9.5,1.7v1.5c0,.8-.2,1.4-.6,1.8-.4.4-.9.6-1.6.6h0Z"/>
    <path class="st0" d="M180.4,279.2c-.5,0-.8-.1-1.1-.4-.2-.3-.4-.7-.4-1.2s0-.8.2-1c.2-.3.4-.5.8-.6.4-.1.8-.2,1.5-.3h1.1v.7h-1.2c-.6.1-.9.2-1.1.4s-.3.4-.3.8,0,.5.2.6c.1.1.3.2.5.2s.5,0,.8-.3c.3-.2.7-.5,1.1-1v.9c-.3.3-.5.5-.8.7-.2.2-.5.3-.7.4-.2,0-.5.1-.7.1h0ZM182.7,279.1h0v-4c0-.4,0-.7-.2-.9s-.4-.3-.8-.3c-.7,0-1.1.2-1.1.7s0,.1-.1.1h-.8s-.1,0-.1-.2c0-.5.1-.8.5-1.1.4-.3.9-.4,1.6-.4s1.2.2,1.6.5c.3.3.5.8.5,1.5v4s0,.1-.1.1h-1Z"/>
    <path class="st0" d="M187.5,279.2c-.8,0-1.4-.2-1.7-.6-.4-.4-.6-1-.6-1.7v-4.1c0-.5,0-.8.3-1.2.2-.3.4-.5.8-.7.3-.2.8-.2,1.3-.2s1.2.1,1.6.4.5.7.5,1.3,0,.8-.3,1.1-.4.5-.7.7h0c.5,0,.9.3,1.1.6s.3.8.3,1.3v.6c0,.8-.2,1.4-.6,1.8-.4.4-1,.6-1.8.6h-.2ZM186.2,274.5l1-.2c.4,0,.8-.2,1-.5.3-.2.4-.6.4-1s0-.7-.3-.8c-.2-.2-.5-.3-.9-.3s-.7,0-.9.3-.3.5-.3.9v1.7h0ZM187.5,278.3c.5,0,.8-.1,1.1-.4.2-.3.4-.6.4-1.2v-.6c0-.4,0-.7-.3-.9-.2-.2-.5-.3-.8-.3h-1.1c-.2,0-.4,0-.6.2v1.5c0,.5.1.9.3,1.2.2.2.5.4,1,.4h0Z"/>
    <path class="st0" d="M193.2,279.2c-.5,0-.9-.2-1.2-.5s-.4-.8-.4-1.5v-3.9s0-.1.1-.1h.8s.1,0,.1.1v3.8c0,.4,0,.7.2.9.1.2.4.3.7.3s.6,0,.9-.3c.3-.2.7-.5,1.1-1v.9c-.3.3-.5.5-.8.7s-.5.3-.8.4-.5.1-.8.1h0ZM195.6,279.1s-.1,0-.1-.1v-5.7s0-.1.1-.1h.8s.1,0,.1.1v5.7s0,.1-.1.1h-.8Z"/>
    <path class="st0" d="M197.4,279.1s-.1,0,0-.1l2-5.5c0-.1.1-.2.2-.2h.8s.2,0,.2.2l2,5.5h0c0,.1-.8.1-.8.1h-.1l-1.1-3.2c0-.2-.2-.5-.2-.7s-.2-.5-.2-.7h0c0,.2-.1.5-.2.7,0,.2-.2.5-.3.7l-1.1,3.2h-1.2Z"/>
    <path class="st0" d="M203.7,279.1s-.1,0-.1-.1v-5.6s0-.1.1-.1h.8s.1,0,.1.1v5.6s0,.1-.1.1h-.8ZM204.5,276.5v-.9h3.1v.9h-3.1ZM207.5,279.1s-.1,0-.1-.1v-5.6s0-.1.1-.1h.8s.1,0,.1.1v5.6s0,.1-.1.1h-.8Z"/>
    <path class="st0" d="M211.3,279.2c-.5,0-.8-.1-1.1-.4-.2-.3-.4-.7-.4-1.2s0-.8.2-1c.2-.3.4-.5.8-.6.4-.1.8-.2,1.5-.3h1.1v.7h-1.2c-.6.1-.9.2-1.1.4s-.3.4-.3.8,0,.5.2.6c.1.1.3.2.5.2s.5,0,.8-.3c.3-.2.7-.5,1.1-1v.9c-.3.3-.5.5-.8.7-.2.2-.5.3-.7.4-.2,0-.5.1-.7.1h0ZM213.6,279.1h0v-4c0-.4,0-.7-.2-.9s-.4-.3-.8-.3c-.7,0-1.1.2-1.1.7s0,.1-.1.1h-.8s-.1,0-.1-.2c0-.5.1-.8.5-1.1.4-.3.9-.4,1.6-.4s1.2.2,1.6.5c.3.3.5.8.5,1.5v4s0,.1-.1.1h-1Z"/>
    <path class="st0" d="M216.2,279.1s-.1,0-.1-.1v-5.6s0-.1.1-.1h.8v.8c.4-.4.7-.6,1-.8s.7-.2,1-.2.7,0,1,.3c.3.2.4.5.5.8.4-.4.7-.7,1.1-.9.3-.2.7-.3,1.1-.3s.9.2,1.2.5.4.8.4,1.5v3.9s0,.1-.1.1h-.8s-.1,0-.1-.1v-3.8c0-.4,0-.7-.2-.9-.1-.2-.4-.3-.7-.3s-.5,0-.8.2-.6.4-1,.8v4s0,.1-.1.1h-.8s-.1,0-.1-.1v-3.8c0-.4,0-.7-.2-.9-.1-.2-.4-.3-.7-.3s-.5,0-.8.2-.6.4-1,.8v4s0,.1-.1.1h-.8.2Z"/>
    <path class="st0" d="M227.3,279.2c-.5,0-.8-.1-1.1-.4-.2-.3-.4-.7-.4-1.2s0-.8.2-1c.2-.3.4-.5.8-.6.4-.1.8-.2,1.5-.3h1.1v.7h-1.2c-.6.1-.9.2-1.1.4s-.3.4-.3.8,0,.5.2.6c.1.1.3.2.5.2s.5,0,.8-.3c.3-.2.7-.5,1.1-1v.9c-.3.3-.5.5-.8.7-.2.2-.5.3-.7.4-.2,0-.5.1-.7.1h0ZM229.6,279.1h0v-4c0-.4,0-.7-.2-.9s-.4-.3-.8-.3c-.7,0-1.1.2-1.1.7s0,.1-.1.1h-.8s-.1,0-.1-.2c0-.5.1-.8.5-1.1.4-.3.9-.4,1.6-.4s1.2.2,1.6.5c.3.3.5.8.5,1.5v4s0,.1-.1.1h-1Z"/>
    <path class="st0" d="M237.1,279.2c-.8,0-1.4-.2-1.8-.6-.4-.4-.6-1-.6-1.8v-2.8c0-.7.1-1.3.3-1.7.2-.4.5-.7.9-.9.2-.1.5-.2.7-.3s.5-.1.7-.2c.2,0,.5-.1.7-.2.2,0,.4-.2.6-.3h.2l.2.7v.2c-.2.1-.4.2-.7.3-.3,0-.6.1-.9.2-.3,0-.6.2-.9.3-.3.1-.5.3-.6.6-.1.3-.2.6-.2.9v3c0,.5.1.9.3,1.1s.6.4,1.1.4.9-.1,1.1-.4c.2-.3.3-.6.3-1.1v-1.2c0-.4,0-.8-.3-1-.2-.2-.4-.3-.8-.3s-.7.1-1,.3-.6.5-.9.9v-1c.2-.2.4-.4.6-.6s.4-.3.7-.4.5-.1.8-.1c.6,0,1,.2,1.4.5s.5.8.5,1.5v1.4c0,.8-.2,1.3-.6,1.7-.4.4-1,.6-1.8.6v.3Z"/>
    <path class="st0" d="M242.1,281.3s-.1,0,0-.1l.9-2.1-2.2-5.6h0c0-.1.9-.1.9-.1h.1l1.1,2.9c0,.2.2.5.3.8s.2.5.3.8h0c0-.3.2-.5.3-.8,0-.3.2-.5.3-.8l1.1-2.9h.9q.1,0,0,.1l-3,7.8h-1Z"/>
    <path class="st0" d="M247.3,279.1s-.1,0-.1-.1v-5.6s0-.1.1-.1h.8v.8c.4-.4.7-.6,1-.8s.7-.2,1-.2.7,0,1,.3c.3.2.4.5.5.8.4-.4.7-.7,1.1-.9.3-.2.7-.3,1.1-.3s.9.2,1.2.5.4.8.4,1.5v3.9s0,.1-.1.1h-.8s-.1,0-.1-.1v-3.8c0-.4,0-.7-.2-.9-.1-.2-.4-.3-.7-.3s-.5,0-.8.2-.6.4-1,.8v4s0,.1-.1.1h-.8s-.1,0-.1-.1v-3.8c0-.4,0-.7-.2-.9-.1-.2-.4-.3-.7-.3s-.5,0-.8.2-.6.4-1,.8v4s0,.1-.1.1h-.8.2Z"/>
    <path class="st0" d="M258.9,279.2c-.5,0-.9-.2-1.2-.5-.3-.3-.4-.8-.4-1.5v-3.9s0-.1.1-.1h.8s.1,0,.1.1v3.8c0,.4,0,.7.2.9.1.2.4.3.7.3s.6,0,.9-.3c.3-.2.7-.5,1.1-1v.9c-.3.3-.5.5-.8.7s-.5.3-.8.4-.5.1-.8.1h0ZM261.3,279.1s-.1,0-.1-.1v-5.7s0-.1.1-.1h.8s.1,0,.1.1v5.7s0,.1-.1.1h-.8Z"/>
    <path class="st0" d="M263.1,279.1s-.1,0,0-.1l2-5.5c0-.1.1-.2.2-.2h.8s.2,0,.2.2l2,5.5h0c0,.1-.8.1-.8.1h-.1l-1.1-3.2c0-.2-.2-.5-.2-.7s-.2-.5-.2-.7h0c0,.2-.1.5-.2.7,0,.2-.2.5-.3.7l-1.1,3.2h-1.2Z"/>
    <path class="st0" d="M274.1,278.9h-1l-1.8-2.7h-.9v2.6s0,.1-.1.1h-.8s-.1,0-.1-.1v-8s0-.1.1-.1h.8s.1,0,.1.1v4.5h.8l1.7-2.2h1.1c0,.1-1.9,2.6-1.9,2.6l2.1,3.1h-.1Z"/>
    <path class="st0" d="M276.1,279.2c-.5,0-.8-.1-1.1-.4-.2-.3-.4-.7-.4-1.2s0-.8.2-1c.2-.3.4-.5.8-.6s.8-.2,1.5-.3h1.1v.7h-1.2c-.6.1-.9.2-1.1.4s-.3.4-.3.8,0,.5.2.6c.1.1.3.2.5.2s.5,0,.8-.3c.3-.2.7-.5,1.1-1v.9c-.3.3-.5.5-.8.7-.2.2-.5.3-.7.4-.2,0-.5.1-.7.1h.1ZM278.4,279.1h0v-4c0-.4,0-.7-.2-.9s-.4-.3-.8-.3c-.7,0-1.1.2-1.1.7s0,.1-.1.1h-.8s-.1,0-.1-.2c0-.5.1-.8.5-1.1.4-.3.9-.4,1.6-.4s1.2.2,1.6.5c.3.3.5.8.5,1.5v4s0,.1-.1.1h-1Z"/>
    <path class="st0" d="M281.5,279.2c-.2,0-.4,0-.5-.2-.1-.1-.2-.3-.2-.5h0c0-.3,0-.5.2-.6.1-.1.3-.2.5-.2s.4,0,.5.2c.1.1.2.3.2.5h0c0,.3,0,.5-.2.6-.1.1-.3.2-.5.2Z"/>
  </g>
  <g>
    <path d="M18.4,466.8v-8.4h1.2v7.5h3.8v.9h-5Z"/>
    <path d="M27.3,466.9c-.6,0-1.1-.1-1.5-.4-.5-.3-.8-.6-1.1-1.1-.3-.5-.4-1-.4-1.6s.1-1.2.4-1.7.6-.8,1.1-1.1,1-.4,1.5-.4,1.1.1,1.5.4.8.6,1.1,1.1c.3.5.4,1,.4,1.7s-.1,1.2-.4,1.7-.6.8-1.1,1.1-1,.4-1.5.4h0ZM27.3,465.9c.3,0,.6,0,.9-.2s.5-.4.7-.7c.2-.3.3-.7.3-1.2s0-.9-.2-1.2c-.2-.3-.4-.6-.6-.7-.3-.2-.6-.2-.9-.2s-.6,0-.9.2-.5.4-.7.7c-.2.3-.2.7-.2,1.2s0,.9.2,1.2c.2.3.4.6.6.7.3.2.6.2.9.2h0Z"/>
    <path d="M31.7,466.8v-6h1.1v1.1c.2-.3.4-.5.6-.7.2-.2.5-.3.8-.4s.6-.2,1-.2v1.3h-1.1c-.2,0-.4.2-.6.3-.2.1-.3.3-.4.6,0,.2,0,.6,0,.9v3h-1.3Z"/>
    <path d="M38.8,466.9c-.6,0-1.1-.1-1.5-.4s-.8-.6-1-1.1c-.3-.5-.4-1-.4-1.7s0-1.2.4-1.7.6-.8,1-1.1c.5-.3,1-.4,1.6-.4s1.1.1,1.5.4.8.6,1,1,.3.9.3,1.4v.6h-4.9v-.8h3.8c0-.5-.2-.9-.5-1.2s-.7-.4-1.2-.4-.6,0-.9.2c-.3.1-.5.4-.6.6-.2.3-.2.6-.2,1.1v.3c0,.4,0,.8.2,1.1.2.3.4.5.6.7.3.2.6.2.9.2s.7,0,1-.3c.3-.2.4-.4.5-.7h1.2c0,.4-.3.7-.5,1s-.6.5-.9.7-.8.3-1.3.3v.2Z"/>
    <path d="M43,466.8v-6h1.1v.8c.3-.3.5-.5.9-.7.3-.2.7-.3,1.1-.3s.6,0,.8.1.5.2.7.4.3.4.5.6c.2-.4.5-.6.9-.8.4-.2.8-.3,1.2-.3s.9,0,1.2.3c.3.2.6.5.8.9s.3.9.3,1.5v3.6h-1.2v-3.5c0-.6,0-1-.3-1.3s-.6-.4-1-.4-.6,0-.8.2-.4.4-.5.7c0,.3-.2.6-.2,1.1v3.2h-1.2v-3.5c0-.6,0-1-.3-1.3s-.6-.4-1-.4-.5,0-.8.2c-.2.2-.4.4-.5.7,0,.3-.2.6-.2,1.1v3.2h-1.5Z"/>
    <path d="M57.7,459.6c-.2,0-.4,0-.6-.2s-.2-.3-.2-.6,0-.4.2-.5c0-.1.3-.2.6-.2s.4,0,.6.2c.2.1.2.3.2.5s0,.4-.2.6c-.2.1-.3.2-.6.2ZM57.1,466.8v-6h1.2v6h-1.2Z"/>
    <path d="M60,469.4v-8.7h1.1v.9c.2-.2.4-.4.6-.5.2-.2.4-.3.7-.4s.6-.2.9-.2c.6,0,1.1.1,1.5.4s.8.7,1,1.1c.2.5.4,1,.4,1.6s0,1.1-.4,1.6c-.2.5-.6.8-1,1.1-.4.3-.9.4-1.5.4s-.9,0-1.2-.3c-.4-.2-.6-.5-.8-.8v3.6h-1.2v.2ZM63.1,465.9c.4,0,.7,0,1-.3.3-.2.5-.4.7-.7.2-.3.2-.7.2-1.1s0-.8-.2-1.1c-.2-.3-.4-.6-.7-.7-.3-.2-.6-.3-1-.3s-.7,0-1,.3-.5.4-.7.7c-.2.3-.2.7-.2,1.1s0,.8.2,1.1c.2.3.4.6.7.7s.6.3,1,.3Z"/>
    <path d="M70,466.9c-.5,0-1,0-1.4-.3-.4-.2-.7-.4-.9-.7-.2-.3-.4-.7-.4-1.1h1.2c0,.2,0,.4.2.5,0,.2.3.3.5.4.2,0,.4.1.7.1s.5,0,.6-.1c.2,0,.3-.2.4-.3s0-.3,0-.4c0-.2,0-.4-.2-.5,0-.1-.3-.2-.5-.3-.2,0-.5-.1-.8-.2-.3,0-.5-.1-.8-.2-.3,0-.5-.2-.7-.3s-.4-.3-.5-.5-.2-.4-.2-.7,0-.7.3-.9c.2-.3.4-.5.8-.6.3-.2.7-.2,1.2-.2s1.2.2,1.6.5.7.8.7,1.4h-1.2c0-.3-.2-.5-.4-.6-.2-.2-.5-.2-.8-.2s-.6,0-.8.2-.3.3-.3.5,0,.3.2.4.3.2.5.3c.2,0,.4.1.7.2.4,0,.8.2,1.1.3.3.1.6.3.8.5.2.2.3.6.3,1s0,.7-.3,1c-.2.3-.5.5-.8.7-.4.2-.8.2-1.3.2h.4Z"/>
    <path d="M76,466.9c-.5,0-.9,0-1.2-.3-.4-.2-.6-.5-.8-.9s-.3-.9-.3-1.5v-3.6h1.2v3.5c0,.6,0,1,.4,1.3s.6.4,1.1.4.6,0,.8-.2c.2-.2.4-.4.6-.7,0-.3.2-.6.2-1v-3.2h1.2v6h-1.1v-1c-.3.4-.5.7-.9.9s-.8.3-1.2.3h0Z"/>
    <path d="M80.8,466.8v-6h1.1v.8c.3-.3.5-.5.9-.7.3-.2.7-.3,1.1-.3s.6,0,.8.1.5.2.7.4.3.4.5.6c.2-.4.5-.6.9-.8.4-.2.8-.3,1.2-.3s.9,0,1.2.3c.3.2.6.5.8.9.2.4.3.9.3,1.5v3.6h-1.2v-3.5c0-.6,0-1-.3-1.3s-.6-.4-1-.4-.6,0-.8.2c-.2.2-.4.4-.5.7,0,.3-.2.6-.2,1.1v3.2h-1.2v-3.5c0-.6,0-1-.3-1.3-.2-.3-.6-.4-1-.4s-.5,0-.8.2c-.2.2-.4.4-.5.7,0,.3-.2.6-.2,1.1v3.2h-1.5Z"/>
  </g>
  <g>
    <path class="st0" d="M196.6,210c-1,1.6-4,3.5-6.1,3.5h-59.5c-4-.2-6.7-3.8-6.9-7.6.5-12.7-.7-26,0-38.6.3-5.3,1.6-10.5,2.2-15.7,1.3-12.1.7-24.3,1.9-36.3,1-10.8-1.3-24,0-34.5.4-3.1,3.8-8.6,5.7-11.2,2.8-4,6.4-7.8,10-11,11.6-.4,23.1.2,34.7.4,5.8,5.5,14.5,15.5,15.3,23.7.7,8.2-.3,24.7,0,36.3.2,11.3.6,23.1,1.9,34.4,1.3,11.2,1.6,7.8,1.9,11.6.8,13.6-.7,27.9,0,41.6,0,1-.4,2.6-.9,3.4h-.1Z"/>
    <path class="st0" d="M137.6,54.7v-24.6c1.5-1.3,0-1.2,0-2.5s2.3-2.5,3.7-3.1c9-3.7,30.4-3.4,39.5,0,2.6,1,4.6,2.5,2.2,5.1l1.1.2v24.9h-46.4,0Z"/>
  </g>
</svg>