<?xml version="1.0" encoding="UTF-8"?>
<svg id="Layer_1" xmlns="http://www.w3.org/2000/svg" version="1.1" viewBox="0 0 330 339">
  <!-- Generator: Adobe Illustrator 29.3.1, SVG Export Plug-In . SVG Version: 2.1.0 Build 151)  -->
  <defs>
    <style>
      .st0 {
        fill: #078dee;
      }
    </style>
  </defs>
  <g>
    <path class="st0" d="M78.2,265c-1,1.7-4.2,3.5-6.2,3.5H10.9c-4-.2-6.9-3.9-7.1-7.8.5-13-.7-26.6,0-39.6.3-5.4,1.7-10.8,2.4-16.2,1.3-12.3.7-24.9,1.9-37.2,1-11.1-1.3-24.6,0-35.4.3-3.2,3.9-8.8,5.9-11.5,2.9-4,6.6-7.9,10.3-11.3,12-.3,23.8.2,35.6.3,5.9,5.6,14.8,15.8,15.7,24.3s-.3,25.3,0,37.2c.2,11.6.7,23.8,2,35.2,1.3,11.5,1.7,7.9,1.9,12,.8,13.8-.7,28.6,0,42.6,0,1-.5,2.7-.8,3.5h0l-.3.2Z"/>
    <path class="st0" d="M17.7,104v-25.1c1.5-1.3,0-1.2,0-2.5s2.4-2.5,3.7-3.2c9.3-3.7,31.2-3.5,40.4,0,2.7,1,4.7,2.5,2.2,5.2h1.2v25.8H17.7v-.2Z"/>
  </g>
  <g>
    <path class="st0" d="M98,173.5v-42h16.5c2.9,0,5.4.5,7.4,1.4,2,.9,3.5,2.2,4.5,3.8,1,1.6,1.5,3.5,1.5,5.6s-.5,3.9-1.4,5.3c-.9,1.4-2.2,2.5-3.7,3.3-1.5.8-3.1,1.2-4.9,1.4l1-.7c1.9,0,3.6.5,5.1,1.5s2.7,2.2,3.6,3.8c.9,1.5,1.3,3.2,1.3,5.1s-.5,4.2-1.6,5.9c-1.1,1.7-2.6,3.1-4.7,4.1-2,1-4.5,1.5-7.5,1.5h-17ZM105.2,149.2h8.3c2.3,0,4-.5,5.2-1.6,1.2-1.1,1.8-2.5,1.8-4.4s-.6-3.3-1.8-4.3c-1.2-1.1-3-1.6-5.3-1.6h-8.2v11.9ZM105.2,167.6h8.8c2.4,0,4.3-.6,5.6-1.7,1.3-1.1,2-2.7,2-4.7s-.7-3.6-2-4.8c-1.4-1.2-3.2-1.8-5.6-1.8h-8.6v12.9Z"/>
    <path class="st0" d="M151.6,174.2c-3,0-5.8-.6-8.2-1.8-2.5-1.2-4.4-3-5.9-5.5-1.5-2.5-2.2-5.6-2.2-9.4v-26h7.2v26.1c0,2.3.4,4.2,1.1,5.6.7,1.5,1.8,2.6,3.2,3.3,1.4.7,3,1.1,4.9,1.1s3.6-.4,4.9-1.1c1.4-.7,2.4-1.8,3.2-3.3.8-1.5,1.1-3.4,1.1-5.6v-26.1h7.2v26c0,3.8-.8,6.9-2.2,9.4-1.5,2.5-3.5,4.3-6,5.5-2.5,1.2-5.3,1.8-8.3,1.8Z"/>
    <path class="st0" d="M186,173.5v-36.2h-12.4v-5.8h31.9v5.8h-12.4v36.2h-7.1Z"/>
    <path class="st0" d="M211.5,173.5v-42h7.2v42h-7.2Z"/>
    <path class="st0" d="M227.1,173.5v-42h7.2v36.4h18.8v5.6h-26Z"/>
    <path class="st0" d="M260,173.5v-42h7.2v17.3l15.9-17.3h8.9l-15.5,16.7,15.9,25.3h-8.8l-12.2-19.8-4.1,4.5v15.3h-7.2Z"/>
    <path class="st0" d="M298,173.5v-42h7.2v42h-7.2Z"/>
    <path class="st0" d="M98.4,245.5v-42h2.9l24.5,37.6v-37.6h2.7v42h-2.8l-24.7-37.6v37.6h-2.7Z"/>
    <path class="st0" d="M135,245.5l15.5-42h2.9l15.2,42h-2.8l-13.9-38.5-14,38.5h-2.9ZM141.6,232.1l1-2.2h18.7l.9,2.2h-20.6Z"/>
    <path class="st0" d="M175.8,245.5v-42h24.7v2.3h-22v17.5h20.2v2.3h-20.2v17.6h22v2.3h-24.7Z"/>
    <path class="st0" d="M208.6,245.5v-42h11c5,0,9.1.8,12.2,2.5,3.2,1.7,5.5,4.1,7,7.2,1.5,3.2,2.3,7,2.3,11.5s-.7,7.8-2.2,10.9c-1.5,3.1-3.8,5.6-6.9,7.3-3.1,1.7-7.2,2.6-12.3,2.6h-11.2ZM211.3,243.2h8.5c4.4,0,8-.8,10.7-2.2s4.7-3.6,6-6.4c1.3-2.8,1.9-6.1,1.9-9.9s-.6-7.2-1.9-10-3.2-5-5.9-6.5c-2.7-1.5-6.3-2.3-10.7-2.3h-8.5v37.4Z"/>
    <path class="st0" d="M248.8,245.5v-42h11.8c3.2,0,5.9.5,7.9,1.6,2,1,3.5,2.5,4.4,4.3.9,1.8,1.3,3.8,1.3,6.1s-.5,4.4-1.4,6.2c-.9,1.8-2.4,3.2-4.5,4.3-2,1-4.7,1.6-8,1.6h-8.9v18.1h-2.7ZM251.5,225.2h9c3.6,0,6.3-.8,8.2-2.5,1.9-1.7,2.8-4.1,2.8-7.3s-.9-5.4-2.8-7c-1.8-1.7-4.6-2.5-8.3-2.5h-8.9v19.4ZM271.5,245.5l-9.7-19.1h3.1l9.8,19.1h-3.2Z"/>
    <path class="st0" d="M300.8,246.2c-4,0-7.6-.9-10.5-2.7-3-1.8-5.3-4.4-7-7.6-1.7-3.3-2.5-7-2.5-11.4s.8-8,2.5-11.3,4-5.8,7-7.7c3-1.8,6.5-2.8,10.5-2.8s7.6.9,10.6,2.8,5.3,4.4,7,7.7c1.7,3.3,2.5,7,2.5,11.3s-.8,8.1-2.5,11.4c-1.7,3.3-4,5.8-7,7.6s-6.5,2.7-10.6,2.7ZM300.8,243.7c3.4,0,6.3-.8,8.9-2.3,2.6-1.5,4.6-3.7,6.1-6.6,1.5-2.9,2.2-6.3,2.2-10.4s-.7-7.5-2.2-10.4-3.5-5.1-6.1-6.6-5.6-2.2-9-2.2-6.2.8-8.8,2.2c-2.6,1.5-4.6,3.7-6.1,6.6s-2.2,6.3-2.2,10.4.8,7.5,2.2,10.4,3.5,5.1,6.1,6.6c2.6,1.5,5.5,2.3,8.8,2.3Z"/>
  </g>
</svg>