<?xml version="1.0" encoding="UTF-8"?>
<svg id="Layer_1" xmlns="http://www.w3.org/2000/svg" version="1.1" viewBox="0 0 330 339">
  <!-- Generator: Adobe Illustrator 29.3.1, SVG Export Plug-In . SVG Version: 2.1.0 Build 151)  -->
  <defs>
    <style>
      .st0 {
        fill: #078dee;
      }
    </style>
  </defs>
  <g>
    <path class="st0" d="M212.8,269.6c-1.3,2.2-5.4,4.7-8.1,4.7h-79.5c-5.3-.3-9-5.1-9.2-10.2.7-17-.9-34.7,0-51.5.4-7.1,2.2-14,3-21,1.8-16.1.9-32.4,2.5-48.5,1.3-14.4-1.8-32,0-46,.5-4.1,5.1-11.5,7.6-14.9,3.7-5.3,8.5-10.4,13.3-14.7,15.5-.5,30.9.3,46.3.5,7.7,7.3,19.4,20.7,20.4,31.6s-.4,33,0,48.5c.3,15.1.8,30.9,2.6,45.9s2.1,10.4,2.5,15.5c1.1,18.1-.9,37.3,0,55.5-.1,1.3-.6,3.5-1.2,4.6h-.2Z"/>
    <path class="st0" d="M134,62.3V29.5c2-1.7,0-1.6,0-3.4s3.1-3.4,4.9-4.2c12-4.9,40.6-4.6,52.7,0,3.5,1.3,6.1,3.3,2.9,6.8l1.5.3v33.2h-62,0Z"/>
  </g>
  <g>
    <path class="st0" d="M37.6,320.1v-25.2h9.9c1.8,0,3.2.3,4.4.8,1.2.6,2.1,1.3,2.7,2.3.6,1,.9,2.1.9,3.4s-.3,2.3-.8,3.2c-.6.9-1.3,1.5-2.2,2s-1.9.7-2.9.8l.6-.4c1.1,0,2.1.3,3,.9s1.6,1.3,2.1,2.2c.5.9.8,2,.8,3.1s-.3,2.5-1,3.5-1.6,1.9-2.8,2.4c-1.2.6-2.7.9-4.5.9h-10.2ZM41.9,305.5h5c1.4,0,2.4-.3,3.1-1,.7-.6,1.1-1.5,1.1-2.6s-.4-2-1.1-2.6c-.7-.6-1.8-1-3.2-1h-4.9s0,7.2,0,7.2ZM41.9,316.5h5.3c1.4,0,2.6-.3,3.3-1s1.2-1.6,1.2-2.8-.4-2.2-1.2-2.9-1.9-1.1-3.4-1.1h-5.2v7.7h0Z"/>
    <path class="st0" d="M69.8,320.5c-1.8,0-3.5-.4-4.9-1.1-1.5-.7-2.7-1.8-3.5-3.3s-1.3-3.4-1.3-5.6v-15.6h4.3v15.7c0,1.4.2,2.5.7,3.4.4.9,1.1,1.6,1.9,2s1.8.7,3,.7,2.1-.2,3-.7c.8-.4,1.5-1.1,1.9-2,.5-.9.7-2,.7-3.4v-15.7h4.3v15.6c0,2.3-.4,4.1-1.4,5.6-.9,1.5-2.1,2.6-3.6,3.3-1.5.7-3.2,1.1-5,1.1h0Z"/>
    <path class="st0" d="M90.4,320.1v-21.7h-7.4v-3.5h19.1v3.5h-7.4v21.7s-4.3,0-4.3,0Z"/>
    <path class="st0" d="M105.7,320.1v-25.2h4.3v25.2h-4.3Z"/>
    <path class="st0" d="M115.1,320.1v-25.2h4.3v21.8h11.3v3.4h-15.6Z"/>
    <path class="st0" d="M134.9,320.1v-25.2h4.3v10.4l9.5-10.4h5.3l-9.3,10,9.5,15.2h-5.3l-7.3-11.9-2.5,2.7v9.2h-4.3.1Z"/>
    <path class="st0" d="M157.7,320.1v-25.2h4.3v25.2h-4.3Z"/>
    <path class="st0" d="M167.3,320.1v-25.2h.9l15.5,24v-24h.7v25.2h-.9l-15.6-24.2v24.2h-.7.1Z"/>
    <path class="st0" d="M188.4,320.1l9.2-25.2h.9l9,25.2h-.8l-8.7-24.4-8.9,24.4h-.8.1ZM191.9,310.9l.3-.6h11.4l.3.6h-12Z"/>
    <path class="st0" d="M212.1,320.1v-25.2h14.3v.6h-13.6v11.7h12.5v.7h-12.5v11.6h13.6v.6h-14.3Z"/>
    <path class="st0" d="M231.2,320.1v-25.2h6c3,0,5.5.5,7.4,1.5s3.3,2.4,4.2,4.3,1.4,4.2,1.4,6.9-.4,4.5-1.2,6.4-2.2,3.4-4,4.4c-1.8,1.1-4.3,1.6-7.5,1.6h-6.3,0ZM232,319.4h5.5c2.7,0,5-.5,6.8-1.4s3.1-2.3,3.9-4.1c.9-1.8,1.3-3.9,1.3-6.3s-.4-4.6-1.2-6.4-2.1-3.2-3.9-4.2c-1.8-1-4-1.5-6.9-1.5h-5.5v23.9h0Z"/>
    <path class="st0" d="M254.8,320.1v-25.2h6.3c2,0,3.5.3,4.7.9s2.1,1.4,2.6,2.5.8,2.3.8,3.6-.3,2.7-.8,3.8c-.5,1.1-1.4,1.9-2.6,2.4-1.2.6-2.8.9-4.7.9h-5.6v11.1h-.7ZM255.5,308.3h5.6c2.3,0,4.1-.5,5.4-1.5s1.9-2.7,1.9-4.9-.6-3.7-1.9-4.7c-1.3-1.1-3.1-1.6-5.4-1.6h-5.6v12.8h0ZM268.7,320.1l-6-11.6h.8l6,11.6h-.8Z"/>
    <path class="st0" d="M284.9,320.5c-2.4,0-4.5-.5-6.3-1.6s-3.2-2.6-4.1-4.6c-1-2-1.5-4.2-1.5-6.8s.5-4.8,1.5-6.8,2.4-3.5,4.1-4.6c1.8-1.1,3.9-1.7,6.3-1.7s4.5.6,6.3,1.7,3.2,2.6,4.2,4.6,1.5,4.2,1.5,6.8-.5,4.9-1.5,6.8c-1,2-2.4,3.5-4.2,4.6-1.8,1.1-3.9,1.6-6.3,1.6ZM284.9,319.8c2.1,0,4-.5,5.7-1.4s3-2.4,4-4.2c1-1.8,1.5-4.1,1.5-6.7s-.5-4.8-1.5-6.7c-1-1.8-2.3-3.2-4-4.2s-3.6-1.4-5.7-1.4-3.9.5-5.6,1.4c-1.7,1-3,2.4-4,4.2-1,1.8-1.5,4.1-1.5,6.7s.5,4.8,1.5,6.7c1,1.8,2.3,3.2,4,4.2s3.6,1.4,5.6,1.4Z"/>
  </g>
</svg>