<?xml version="1.0" encoding="UTF-8"?>
<svg id="Layer_1" data-name="Layer 1" xmlns="http://www.w3.org/2000/svg" viewBox="0 0 577.94 185.29">
  <defs>
    <style>
      .cls-1 {
        letter-spacing: 0em;
      }

      .cls-1, .cls-2 {
        font-family: DMSans-ExtraLight, 'DM Sans';
        font-variation-settings: 'opsz' 14, 'wght' 200;
        font-weight: 200;
      }

      .cls-3 {
        font-family: DMSans-SemiBold, 'DM Sans';
        font-variation-settings: 'opsz' 14, 'wght' 600;
        font-weight: 600;
      }

      .cls-4 {
        font-size: 60px;
      }

      .cls-4, .cls-5 {
        fill: #00a76f;
      }
    </style>
  </defs>
  <g>
    <path class="cls-5" d="M51.38,6.75c10.75-10.97,29.46-8.15,36.58,5.42,1.28,2.44,1.75,4.89,2.65,7.41,4.74.57,9.53.98,14.19,2.05,1.84.42,7.65,1.77,8.17,3.72.27,1.03-.32,3.33-.4,4.52-1.07,17.15-2.14,34.34-3.66,51.46-.18,2.05.6,3.18-1.3,4.65-4.55,3.5-22.84,4.57-29,4.85-12.94.6-33.14.22-45.46-3.5-1.57-.47-5.14-1.66-5.43-3.49-.47-3.08-.28-6.51-.47-9.59-.43-6.85-.98-13.75-1.37-20.59-.54-9.59-.92-19.18-1.56-28.76.38-1.76,4.34-2.85,5.9-3.26,4.79-1.26,9.78-1.56,14.65-2.27,1.04-4.78,3.06-9.1,6.5-12.61ZM81.46,18.77c-.7-4.24-4.84-8.2-8.8-9.61-7.84-2.81-16.6,1.51-18.88,9.5l27.68.12Z"/>
    <g>
      <path class="cls-5" d="M76.2,99.51c1.7-.03,3.43.05,5.11-.04,8.33-.43,25.49-1.66,31.94-6.94.77-.63,3.62-3.61,3.83-4.4l3.48-47.18.56.24c12.97,23.42,12.39,51.79,13.86,77.85v66.22c-4.85-.05-9.7.06-14.54,0-39.87-.39-79.72-.9-119.61-.91l-.69-.23c-.11-7.41-.2-14.89-.11-22.32.23-19.7.57-39.55,1.84-59.23,1.24-19.26,3.03-42.41,12.54-59.5.21-.38,1.72-3.25,2.1-2.82-.15.76.18,1.48.23,2.17.98,14.03.92,28.61,2.29,42.53.66,6.7,8.03,9.79,13.67,11.26,8.89,2.31,18.58,2.51,27.7,3.29l.16,4.34,7.07-.02c1.24.04,2.66.22,3.87.25.81.02,4.7.25,4.7-.58v-4ZM11.5,178.16l111.89.91.28-.18c.24-4.14.03-8.33.09-12.49.12-7.92.88-17.34.25-25.16-1.73-21.28-34.15-30.31-51.58-31.21-17.5-.9-44.06,3.84-55.55,18.32-5.23,6.58-5.21,11.42-5.41,19.52-.25,10.08.19,20.21.04,30.29Z"/>
      <path class="cls-5" d="M20.17,141.93c.72-8.2,8.87-13.83,15.7-17.01,18.76-8.72,47.62-8.36,65.91,1.49,5.49,2.96,12.87,8.57,13.53,15.29.67,6.85-.01,16.09-.24,23.09-.06,1.87.06,3.75.01,5.61l-94.91-.69v-27.79Z"/>
    </g>
  </g>
  <text class="cls-4" transform="translate(150.56 131.14)"><tspan class="cls-3" x="0" y="0">RANICI</tspan><tspan class="cls-2" x="197.28" y="0">N</tspan><tspan class="cls-1" x="236.64" y="0">A</tspan><tspan class="cls-2" x="274.74" y="0">EDRO</tspan></text>
</svg>