<?xml version="1.0" encoding="UTF-8"?>
<svg id="Layer_1" data-name="Layer 1" xmlns="http://www.w3.org/2000/svg" viewBox="0 0 360.38 443.51">
  <defs>
    <style>
      .cls-1 {
        fill: #00a76f;
      }
    </style>
  </defs>
  <path class="cls-1" d="M122.97,16.15c25.74-26.25,70.52-19.5,87.56,12.97,3.06,5.84,4.18,11.7,6.34,17.74,11.35,1.36,22.81,2.36,33.97,4.9,4.41,1,18.31,4.23,19.55,8.91.65,2.46-.77,7.97-.95,10.82-2.57,41.06-5.13,82.2-8.76,123.17-.43,4.9,1.44,7.62-3.11,11.12-10.88,8.38-54.68,10.93-69.4,11.61-30.97,1.44-79.33.53-108.81-8.39-3.75-1.14-12.31-3.98-12.99-8.36-1.13-7.36-.67-15.58-1.13-22.96-1.02-16.4-2.36-32.92-3.27-49.28-1.29-22.95-2.2-45.92-3.74-68.84.91-4.21,10.39-6.83,14.11-7.81,11.47-3.01,23.41-3.73,35.07-5.44,2.48-11.44,7.32-21.77,15.55-30.17ZM194.99,44.94c-1.67-10.16-11.6-19.62-21.05-23.01-18.76-6.73-39.73,3.61-45.19,22.73l66.25.28Z"/>
  <g>
    <path class="cls-1" d="M182.4,238.18c4.06-.08,8.2.12,12.24-.09,19.95-1.03,61.02-3.96,76.45-16.6,1.84-1.51,8.66-8.65,9.18-10.53l8.34-112.92,1.34.57c31.03,56.06,29.65,123.96,33.17,186.34l-.02,158.5c-11.59-.11-23.19.13-34.79.02-95.42-.94-190.81-2.16-286.3-2.19l-1.65-.54c-.26-17.74-.47-35.64-.26-53.43.55-47.15,1.37-94.66,4.4-141.76,2.96-46.1,7.25-101.51,30.02-142.42.51-.91,4.11-7.78,5.02-6.75-.36,1.82.43,3.53.54,5.2,2.33,33.59,2.2,68.47,5.48,101.81,1.58,16.03,19.22,23.43,32.73,26.94,21.28,5.53,44.48,6,66.3,7.88l.39,10.38,16.93-.06c2.96.09,6.36.54,9.26.59,1.93.04,11.24.59,11.24-1.39v-9.58ZM27.54,426.43l267.82,2.17.66-.44c.57-9.9.07-19.94.22-29.89.29-18.96,2.11-41.49.59-60.21-4.14-50.92-81.73-72.54-123.47-74.7-41.89-2.17-105.45,9.2-132.96,43.84-12.51,15.76-12.47,27.34-12.95,46.72-.59,24.13.45,48.37.09,72.5Z"/>
    <path class="cls-1" d="M48.28,339.72c1.73-19.62,21.23-33.11,37.58-40.71,44.91-20.86,113.98-20.02,157.77,3.56,13.13,7.07,30.81,20.52,32.38,36.6,1.59,16.39-.03,38.51-.57,55.26-.14,4.47.15,8.97.03,13.44l-227.18-1.65v-66.51Z"/>
  </g>
</svg>