<?xml version="1.0" encoding="utf-8"?>
<!-- Generator: Adobe Illustrator 28.3.0, SVG Export Plug-In . SVG Version: 6.00 Build 0)  -->
<svg version="1.1" id="Layer_1" xmlns="http://www.w3.org/2000/svg" xmlns:xlink="http://www.w3.org/1999/xlink" x="0px" y="0px"
	 viewBox="0 0 120 40" style="enable-background:new 0 0 120 40;" xml:space="preserve">
<style type="text/css">
	.st0{fill:#DA0535;}
	.st1{fill:#4A494B;}
	.st2{fill:#FDFDFD;}
</style>
<g>
	<path class="st0" d="M31.1,10.7c-3.1,1.8-5.9,3.4-8.7,5.1c-0.4,0.2-0.9,0.5-1,0.9c-0.1,0.4,0,1.2,0.3,1.4c0.4,0.3,1.2,0.4,1.6,0.2
		c2.5-1.3,4.9-2.8,7.3-4.2c0.3-0.2,0.6-0.3,1.2-0.6c0,1.2,0,2.1,0,3.1c0,3.7,0,7.3,0,11c0,1.2-0.4,1.9-1.4,2.5
		c-4.2,2.4-8.3,5-12.5,7.4c-0.4,0.3-1.3,0.3-1.7,0c-4.2-2.5-8.4-5-12.7-7.5c-1-0.6-1.4-1.2-1.3-2.4c0.1-4.6,0-9.3,0-14.2
		c1.7,1,3.2,1.8,4.7,2.6c2.6,1.5,5.1,3,7.7,4.5c0.9,0.5,1.2,1,1.2,2.1c-0.1,3.1,0,6.2-0.1,9.2c0,1.1,0.3,1.8,1.4,1.8
		c1.2,0,1.3-0.9,1.3-1.9c0-3.6-0.1-7.2,0-10.8c0-1-0.4-1.5-1.2-2c-4.3-2.5-8.7-5-13-7.6c-0.3-0.2-0.6-0.4-1.1-0.7
		C4.2,10.1,5.2,9.5,6.2,9c3.2-1.8,6.4-3.5,9.6-5.2c0.6-0.3,1.6-0.5,2.1-0.2C22.2,5.9,26.5,8.2,31.1,10.7z"/>
	<path class="st1" d="M100,16.4c0-2,0-3.7,0-5.6c1.2,0,2.2,0,3.5,0c0,2.8,0,5.5,0,8.2c0,2.9,0,5.7,0,8.6c0,0.5-0.5,1.3-0.8,1.3
		c-2.1,0.2-4.3,0.5-6.4,0.2c-3.8-0.5-5.7-3.4-5.3-7.4c0.4-3.4,3.3-5.8,6.9-5.6C98.5,16.2,99.1,16.3,100,16.4z M100,22.8
		c0-0.8,0.1-1.6,0-2.3c-0.1-0.4-0.5-1-0.9-1.1c-2.2-0.6-4.2,0.6-4.6,2.8c-0.4,2.3,1,4.1,3.3,4.4c1.9,0.2,2.2,0,2.2-1.9
		C100,23.9,100,23.4,100,22.8z"/>
	<path class="st1" d="M57.1,29c0-1,0-1.8,0-2.7c3.1-0.9,4.4-2.9,3.4-5.3c-0.7-1.6-3.5-2.6-4.8-1.7c-0.3,0.2-0.4,0.9-0.4,1.4
		c0,3.9,0,7.7,0,11.6c0,0.5,0,1,0,1.6c-1.2,0-2.2,0-3.3,0c-0.1-0.2-0.2-0.5-0.2-0.7c0-5,0-10,0-15c0-0.4,0.4-1.2,0.7-1.3
		c2.1-0.3,4.3-0.9,6.4-0.7c3.8,0.4,5.7,3.4,5.2,7.2C63.7,27.1,61.1,29.3,57.1,29z"/>
	<path class="st1" d="M90,24.2c-2.9,0-5.6,0-8.2,0c0,3,3.7,2.9,7,1.4c0.9,2.2,0.5,3.1-1.8,3.5c-0.1,0-0.2,0-0.3,0.1
		c-2.6,0.5-5.2,0.7-7.1-1.5c-2-2.5-2-5.4-1-8.3c0.9-2.5,3.2-3.6,6.4-3.3c2.5,0.2,4.1,1.6,4.6,4.2C89.9,21.4,89.9,22.7,90,24.2z
		 M86.3,21.4c-0.1-1.6-0.8-2.3-2.2-2.3c-1.5,0-2.3,0.7-2.5,2.3C83.2,21.4,84.8,21.4,86.3,21.4z"/>
	<path class="st1" d="M77.2,24.1c-2.9,0-5.5,0-8.2,0c0.3,2.7,1.9,3,7.1,1.5c0.8,2.5,0.5,3-1.9,3.5c-0.1,0-0.1,0-0.2,0
		c-6.6,1.3-10.3-2.9-8.3-9.4c0.8-2.7,2.9-4,6.2-3.8c2.7,0.1,4.3,1.4,4.9,4.2C77.1,21.4,77.1,22.7,77.2,24.1z M73.6,21.3
		c-0.4-1.9-1.2-2.5-2.7-2.3c-1.3,0.2-2,0.9-2,2.3C70.5,21.3,72,21.3,73.6,21.3z"/>
	<path class="st1" d="M107.5,33.9c0-0.3,0-0.5,0.1-0.7c1.6-2.8,0.9-5.4-0.2-8.2c-1.1-2.8-2-5.7-3.1-8.8c1.2,0,2.1-0.1,3.1,0
		c0.4,0.1,0.8,0.6,0.9,1c0.8,2.1,1.5,4.2,2.4,6.7c0.8-2.2,1.5-3.9,1.9-5.6c0.4-1.7,1.3-2.5,3-2.2c0.3,0.1,0.7,0,1.3,0
		c-0.3,0.9-0.5,1.7-0.8,2.4c-1.5,4.4-3.1,8.7-4.5,13.2c-0.5,1.8-1.4,2.5-3.2,2.2C108.3,33.9,107.9,33.9,107.5,33.9z"/>
	<path class="st1" d="M49.5,19.7c-1.3-0.3-2.5-0.8-3.7-0.9c-0.5,0-1,0.7-1.5,1c0.4,0.4,0.7,1,1.2,1.2c0.6,0.3,1.4,0.3,2.1,0.5
		c1.9,0.6,2.7,1.7,2.7,3.5c0,1.9-0.9,3.4-2.7,3.9c-1.1,0.3-2.4,0.4-3.5,0.3c-3-0.3-3.2-0.7-2.9-3.7c1.3,0.3,2.7,0.8,4,0.9
		c0.5,0,1.1-0.6,1.7-1c-0.5-0.4-0.8-1-1.4-1.3c-0.6-0.3-1.4-0.4-2.1-0.6C42,23.1,41,22.2,41,20.5c0-2,0.7-3.4,2.4-4
		c1-0.3,2.1-0.5,3.2-0.5C49.5,16.2,50,16.8,49.5,19.7z"/>
	<path class="st2" d="M86.3,21.4c-1.6,0-3.1,0-4.7,0"/>
</g>
</svg>
